<svg width="50" height="50" viewBox="0 0 50 50" fill="none" xmlns="http://www.w3.org/2000/svg">
<rect width="50" height="50" fill="white"/>
<path d="M27.7158 38.8413C28.9703 38.4655 30.1738 37.9347 31.2989 37.261C33.5479 35.913 35.3822 33.9631 36.5981 31.6279C37.2067 30.4723 37.6833 29.2508 38.0189 27.987C38.3577 26.7288 38.5358 25.4321 38.549 24.1284C38.5593 22.8295 38.3874 21.5356 38.0385 20.2852C37.6892 19.0379 37.1747 17.8438 36.5089 16.7351C36.1769 16.1821 35.8115 15.6501 35.4148 15.1422C35.2166 14.8895 35.0114 14.6422 34.7981 14.4029C34.6916 14.283 34.583 14.1661 34.4724 14.0521L34.3055 13.8839C34.2502 13.8309 34.1895 13.7724 34.1413 13.7283L34.7437 13.338C34.7704 13.4324 34.7874 13.5053 34.8052 13.588C34.8231 13.6708 34.8391 13.7481 34.8534 13.8273C34.8829 13.9874 34.907 14.1466 34.9257 14.3067C34.9648 14.626 34.9848 14.9473 34.9855 15.2691C34.991 15.9138 34.9203 16.5569 34.7749 17.1848C34.4896 18.446 33.8809 19.6097 33.0097 20.5595C32.9032 20.6794 32.7928 20.7937 32.6786 20.9022C32.567 21.0137 32.4448 21.1207 32.3368 21.2206C32.1143 21.4239 31.8986 21.6337 31.6898 21.8502C31.2711 22.2874 30.8775 22.7484 30.5109 23.2308C30.4187 23.3507 30.3294 23.4731 30.2432 23.5978L30.1138 23.7777L30.0986 23.7993L30.0861 23.8199L30.0566 23.8685L29.9986 23.9674C29.846 24.231 29.6979 24.499 29.5569 24.7697C29.4159 25.0405 29.2767 25.3094 29.1508 25.5918C29.0205 25.8686 28.9061 26.1527 28.8081 26.4427L28.7394 26.4238C28.8893 25.8213 29.0921 25.2335 29.3454 24.6672C29.4685 24.383 29.5979 24.1018 29.7336 23.8235L29.7854 23.7192L29.8112 23.667L29.8273 23.6365L29.8425 23.6104C29.8835 23.5429 29.9237 23.4719 29.9647 23.4071C30.0468 23.2749 30.1298 23.1436 30.2155 23.0141C30.5576 22.4925 30.9335 21.9944 31.3408 21.5228C31.5443 21.2865 31.7555 21.0566 31.9745 20.8329C32.0869 20.7187 32.1887 20.6171 32.2904 20.5082C32.3921 20.3994 32.4912 20.2897 32.5849 20.1763C33.3443 19.2717 33.866 18.1892 34.102 17.0283C34.2161 16.4523 34.2667 15.8653 34.2528 15.2781C34.2466 14.9839 34.2252 14.6898 34.1904 14.3984C34.1716 14.2527 34.1502 14.107 34.1234 13.964C34.11 13.8929 34.0958 13.8219 34.0797 13.7517C34.0636 13.6816 34.0458 13.6069 34.0306 13.5529L33.6736 12.3027L34.6348 13.1644C34.708 13.23 34.7651 13.2867 34.8275 13.3488C34.89 13.4108 34.948 13.4702 35.006 13.5287C35.1238 13.6519 35.2381 13.7778 35.3496 13.9046C35.5733 14.1601 35.7863 14.4227 35.9886 14.6925C37.2051 16.3147 38.0941 18.1616 38.6052 20.1287C38.9416 21.4355 39.0948 22.7833 39.0603 24.1329C39.0225 25.4769 38.8144 26.8105 38.441 28.1012C38.0742 29.3885 37.5634 30.6296 36.9185 31.8006C35.6245 34.1508 33.7092 36.0933 31.3855 37.4121C30.235 38.0631 29.0078 38.5653 27.7328 38.907L27.7158 38.8413Z" fill="#222222"/>
<path d="M7.54395 26.7414C7.375 26.102 7.26713 25.4478 7.22178 24.7878C7.19501 24.4577 7.18609 24.1258 7.19055 23.793C7.19055 23.6275 7.19769 23.4611 7.20393 23.2947C7.21018 23.1283 7.22357 22.9629 7.24142 22.7965C7.27189 22.4643 7.31985 22.1341 7.3851 21.8071C7.45091 21.48 7.53706 21.1573 7.64301 20.8411C7.74564 20.5236 7.8679 20.2115 7.99998 19.9093C8.06423 19.7564 8.13384 19.6062 8.20077 19.4596L8.41138 19.0099C8.69874 18.4171 8.99503 17.8325 9.32076 17.2605C9.64129 16.6814 9.99902 16.1241 10.3917 15.592C10.7945 15.0589 11.2495 14.5681 11.7499 14.1268C11.9989 13.9047 12.2568 13.6906 12.5272 13.4919C12.6629 13.392 12.8003 13.2949 12.9413 13.2013C13.0118 13.1546 13.0832 13.1114 13.1573 13.0646C13.2314 13.0179 13.301 12.9747 13.3902 12.9324L14.288 12.4602L13.915 13.4226C13.8882 13.4919 13.8561 13.5845 13.8257 13.6681C13.7954 13.7518 13.7713 13.8426 13.7463 13.9308C13.6954 14.1107 13.6499 14.2851 13.6098 14.465C13.5311 14.8259 13.4716 15.1907 13.4313 15.5578C13.3465 16.2917 13.3465 17.033 13.4313 17.7668C13.5164 18.4989 13.6985 19.2162 13.973 19.8994C14.1106 20.2404 14.2723 20.571 14.4567 20.8888C14.6392 21.2101 14.8435 21.5185 15.068 21.8116C15.1804 21.9582 15.2964 22.103 15.4187 22.2424C15.4794 22.3135 15.541 22.3818 15.6043 22.4502L15.7989 22.6615C16.065 22.9504 16.3149 23.254 16.5476 23.5709C17.0135 24.1982 17.4142 24.8721 17.7435 25.582C18.0731 26.286 18.3349 27.0203 18.5252 27.7748C18.6225 28.1508 18.6984 28.5303 18.7582 28.9126C18.8194 29.2947 18.8558 29.6805 18.867 30.0675H18.7956C18.7509 29.6885 18.6842 29.3125 18.5957 28.9414C18.5065 28.569 18.4056 28.2029 18.2878 27.8414C18.17 27.4798 18.0371 27.1218 17.888 26.7755C17.739 26.4293 17.5784 26.0857 17.3999 25.7529C17.0456 25.0889 16.629 24.4606 16.1558 23.8767C15.9196 23.5872 15.6691 23.3098 15.4053 23.0456L15.2001 22.8432C15.1304 22.774 15.0617 22.7038 14.9948 22.631C14.8592 22.488 14.7271 22.3386 14.603 22.1866C13.5807 20.9532 12.9237 19.4545 12.7075 17.8622C12.5994 17.0712 12.5883 16.2697 12.6745 15.476C12.7153 15.0798 12.7791 14.6864 12.8655 14.2977C12.9092 14.1026 12.9547 13.9092 13.0118 13.7167C13.0395 13.6205 13.0689 13.5242 13.1011 13.428C13.1332 13.3318 13.1635 13.2409 13.2064 13.1321L13.7311 13.6223C13.6767 13.6502 13.6044 13.6897 13.5401 13.7266L13.3402 13.8435C13.2073 13.9227 13.0725 14.0072 12.9458 14.0945C12.6861 14.269 12.4309 14.4542 12.1837 14.6494C11.6899 15.0478 11.2189 15.4739 10.7727 15.9257C10.3164 16.3766 9.90291 16.8696 9.53762 17.3981C9.17292 17.9306 8.87525 18.5068 8.65145 19.1133C8.43705 19.7205 8.27638 20.3457 8.17132 20.9814C8.05888 21.611 7.95446 22.2406 7.8679 22.8702C7.68941 24.1366 7.65461 25.4201 7.61445 26.7378L7.54395 26.7414Z" fill="#222222"/>
<path d="M23.3633 39.8136C23.8989 40.0183 24.4522 40.1725 25.016 40.2741C25.2963 40.328 25.5792 40.3694 25.8621 40.4009C26.145 40.4324 26.4288 40.4584 26.7125 40.4719C27.8461 40.5243 28.9818 40.4336 30.0931 40.2021C31.2024 39.9742 32.2832 39.6227 33.3156 39.1543C34.3462 38.6908 35.332 38.1323 36.2606 37.4858C36.7318 37.1674 37.1798 36.8283 37.6394 36.474L39.0128 35.4243C39.9267 34.721 40.8512 34.0329 41.7704 33.3368C43.6079 31.9435 45.4597 30.571 47.3106 29.1994L47.3998 29.7201C47.1134 29.6221 46.8055 29.5331 46.5074 29.4503C46.2093 29.3676 45.8979 29.2857 45.5909 29.2093C44.9778 29.0555 44.3611 28.9116 43.74 28.7937C43.1189 28.6759 42.4906 28.568 41.8659 28.4996C41.5509 28.4636 41.2359 28.4367 40.9191 28.4241C40.6016 28.407 40.2834 28.407 39.9659 28.4241C40.5972 28.3106 41.2383 28.262 41.8793 28.2793C42.5201 28.2928 43.1608 28.3395 43.798 28.4169C44.4352 28.4942 45.0679 28.5968 45.698 28.7155C46.013 28.7775 46.3227 28.8432 46.6404 28.9152C46.9581 28.9871 47.2651 29.06 47.5846 29.1535L48.1379 29.3136L47.6729 29.6734C45.8515 31.0882 44.0309 32.5039 42.1952 33.9007C41.2778 34.5987 40.3666 35.3056 39.4439 35.9964L38.0633 37.0388C37.6073 37.3851 37.1325 37.7386 36.6461 38.0624C35.6693 38.7125 34.6336 39.2681 33.553 39.7218C33.0112 39.9467 32.457 40.1398 31.8931 40.3001C31.3302 40.4618 30.7584 40.5898 30.1805 40.6833C29.0261 40.8666 27.8525 40.8929 26.6911 40.7616C26.1139 40.6971 25.5425 40.5873 24.9821 40.4333C24.7028 40.3559 24.4262 40.2696 24.1549 40.1634C23.8835 40.0648 23.6191 39.9479 23.3633 39.8136Z" fill="#222222"/>
<path d="M21.4913 39.3019C21.394 38.2326 21.1916 37.1756 20.8871 36.1467C20.7326 35.6391 20.5484 35.1411 20.3356 34.6554C20.2285 34.4135 20.1116 34.1769 19.9893 33.944C19.867 33.711 19.7367 33.4825 19.5984 33.2586C19.0442 32.368 18.3611 31.5659 17.5717 30.8787C16.7778 30.1928 15.9039 29.6068 14.9694 29.1338C14.0253 28.6527 13.0345 28.2708 12.0128 27.9942C11.4988 27.8584 10.9794 27.7388 10.452 27.6542C10.3208 27.63 10.1896 27.6102 10.0575 27.5922C9.92544 27.5742 9.78979 27.5544 9.66038 27.5382C9.39504 27.5094 9.12939 27.483 8.86345 27.4591C7.79739 27.3802 6.72718 27.376 5.66054 27.4465C4.59409 27.5139 3.533 27.647 2.47816 27.8152L2.61202 27.4204C2.97613 27.7802 3.31793 28.1399 3.65615 28.506C3.99438 28.8721 4.32726 29.2453 4.6521 29.624C5.30714 30.3759 5.94344 31.1431 6.57706 31.9121C7.21068 32.6812 7.83181 33.461 8.45115 34.2435C8.60465 34.4431 8.75725 34.6329 8.90985 34.8227C9.06246 35.0125 9.21953 35.1996 9.37927 35.3839C9.53901 35.5683 9.70501 35.7437 9.86832 35.9236L9.99058 36.0585L10.1173 36.1889L10.3725 36.4498C10.5439 36.6207 10.7215 36.7862 10.8991 36.9516L11.1722 37.1909L11.3087 37.3105L11.4497 37.4239C11.8213 37.7319 12.2092 38.0196 12.6116 38.2855C13.0155 38.5477 13.4358 38.7833 13.8699 38.9907C14.3017 39.2003 14.7494 39.375 15.2086 39.5132C16.1334 39.7952 17.0993 39.9151 18.0643 39.8676C18.3062 39.8559 18.548 39.8271 18.8006 39.8091C19.0408 39.7894 19.2793 39.753 19.5145 39.7003C19.9955 39.6023 20.4676 39.4575 20.954 39.3405L20.9728 39.4107C20.7416 39.4907 20.5123 39.5906 20.2793 39.6742C20.0464 39.7579 19.8117 39.846 19.5716 39.9216C19.3296 39.998 19.0827 40.0581 18.8327 40.1015C18.5935 40.141 18.3455 40.1914 18.0947 40.2202C17.0826 40.3471 16.0561 40.2861 15.0658 40.0403C14.0757 39.7906 13.1282 39.3932 12.2547 38.8611C11.3849 38.3306 10.5767 37.7037 9.84512 36.9921C9.10797 36.2942 8.45651 35.5027 7.84609 34.7121C7.23567 33.9215 6.63953 33.1354 6.03 32.352C5.42048 31.5686 4.80292 30.7924 4.18001 30.0206L3.24118 28.8721C2.92526 28.4934 2.60756 28.1076 2.28361 27.7487L1.9668 27.397L2.41747 27.3538C3.49314 27.2501 4.57089 27.1883 5.65072 27.1685C6.72877 27.1461 7.80593 27.1685 8.8813 27.2387C9.95967 27.3114 11.0326 27.4508 12.094 27.656C12.6241 27.7676 13.1551 27.8872 13.6763 28.05C14.2004 28.2061 14.714 28.3959 15.2139 28.6184C15.717 28.8424 16.204 29.1015 16.6713 29.3937C18.079 30.2889 19.2501 31.5152 20.0839 32.9672C20.2213 33.2073 20.3516 33.452 20.4694 33.702C20.5872 33.9521 20.6934 34.2075 20.7925 34.4656C20.9891 34.98 21.1481 35.5082 21.2681 36.0459C21.5089 37.1127 21.6091 38.2069 21.5662 39.3001L21.4913 39.3019Z" fill="#222222"/>
<path d="M27.7471 38.87C27.7471 38.87 35.7503 36.4325 37.7021 27.6325C39.6538 18.8325 34.7285 15.6458 34.7285 15.6458L34.5429 13.7732C34.5429 13.7732 40.4989 18.4655 38.2643 27.9185C36.0297 37.3715 27.7471 38.87 27.7471 38.87Z" fill="#222222"/>
<path d="M22.0885 9C22.0885 9 19.305 9.23385 18.4518 11.3385C17.5987 13.4432 18.2198 14.6142 18.6062 15.2384C18.9926 15.8627 20.6954 17.7344 20.9265 19.0601C21.1577 20.3859 20.7712 21.6343 20.7712 21.6343C20.7712 21.6343 21.2326 19.0736 19.5352 17.2676C18.1448 15.7853 17.6005 15.0837 17.4452 13.3676C17.4104 12.9791 17.5201 9.1556 22.0885 9Z" fill="#222222"/>
<path d="M20.9283 16.8773C20.8891 16.7174 20.8372 16.561 20.773 16.4096C20.6953 16.2531 18.9935 13.446 20.8506 12.7435C22.7078 12.0411 22.6301 10.6379 22.6301 10.6379C22.6301 10.6379 22.8238 12.077 21.2763 13.0943C19.7288 14.1115 20.7346 16.0624 20.773 16.2531C20.7882 16.3295 20.9283 16.8773 20.9283 16.8773Z" fill="#222222"/>
<path d="M25.0293 12.5078C25.0293 12.5078 26.268 16.0956 22.709 17.1093C22.7081 17.1111 25.339 15.4759 25.0293 12.5078Z" fill="#222222"/>
<path d="M19.2261 17.657C19.2261 17.657 17.3689 18.0473 17.2137 18.7489C17.0584 19.4505 17.4421 20.3238 17.4421 20.3238C17.4421 20.3238 16.5265 19.732 16.8272 18.6706C17.1369 17.5787 19.2261 17.657 19.2261 17.657Z" fill="#222222"/>
<path d="M18.5288 24.0529C18.5288 24.0529 17.1366 23.8191 16.9037 23.0384C16.6708 22.2577 17.059 21.1667 17.755 20.4651C18.4172 19.7977 18.8384 18.5151 18.8384 18.5151C18.8384 18.5151 18.7724 19.4775 18.5707 19.9542C18.3387 20.5002 17.2553 21.5147 17.332 22.6066C17.4088 23.6986 18.5288 24.0529 18.5288 24.0529Z" fill="#222222"/>
<path d="M22.708 23.1209C22.708 23.1209 23.637 23.8233 24.4875 22.8088C25.338 21.7942 26.3455 20.3911 26.3455 20.3911C26.3455 20.3911 25.4397 22.4337 24.8748 23.1209C24.4875 23.5841 23.7914 23.9744 22.708 23.1209Z" fill="#222222"/>
<path d="M28.7444 30.3704C28.7444 28.9664 27.3513 25.768 27.8154 24.5241C28.2794 23.2802 28.3571 18.7524 28.3571 18.7524C28.3571 18.7524 28.6248 22.1469 28.3954 23.6274C28.1661 25.1078 28.3954 26.8248 28.4731 27.5264C28.5507 28.2279 28.7444 30.3704 28.7444 30.3704Z" fill="#222222"/>
<path d="M26.1895 21.4004L26.3447 26.5173C26.3447 26.5173 27.1952 24.5205 26.1895 21.4004Z" fill="#222222"/>
<path d="M19.2158 31.9679C19.2265 32.0084 19.1765 31.0964 19.1881 30.8769C19.2265 30.1358 19.7682 26.7827 18.8392 25.886C17.9102 24.9892 17.8379 24.2004 17.8379 24.2004C17.8379 24.2004 18.3635 24.9865 18.8383 25.4219C19.3131 25.8572 19.9984 26.3141 19.845 28.4979C19.7495 29.8408 19.5353 31.466 19.5353 32.164C19.5353 32.2081 19.5353 32.2539 19.5353 32.3052C19.5335 32.3052 19.1765 31.8231 19.2158 31.9679Z" fill="#222222"/>
<path d="M24.7197 23.7407C24.6382 23.9146 24.582 24.0994 24.5528 24.2894C24.521 24.4768 24.5087 24.667 24.5162 24.8569C24.5237 25.0455 24.5461 25.2332 24.5831 25.4182C24.6223 25.6015 24.6742 25.7818 24.7384 25.9578C24.8687 26.3112 25.0378 26.6488 25.2426 26.9643C25.4468 27.28 25.6732 27.5806 25.92 27.8637C26.169 28.147 26.4367 28.4142 26.7098 28.6732L26.9204 28.863L27.0257 28.9583L27.1346 29.0609L27.3523 29.2659L27.5549 29.489C28.0917 30.0992 28.4609 30.8402 28.6258 31.6386C28.7005 32.0369 28.7284 32.4426 28.7088 32.8475C28.6876 33.2481 28.6279 33.6457 28.5303 34.0347C28.4321 34.4191 28.3053 34.7956 28.151 35.1608C27.9968 35.5244 27.8179 35.877 27.6156 36.2158C27.5156 36.3849 27.4112 36.5513 27.3005 36.7141C27.2443 36.7951 27.1881 36.8751 27.1283 36.9552C27.0685 37.0352 27.0141 37.1108 26.9561 37.1881L26.2716 38.1172C25.8093 38.7333 25.3479 39.3503 24.8696 39.9557C25.2631 39.291 25.6728 38.638 26.086 37.9841L26.7107 37.0073C26.7633 36.9273 26.8133 36.8427 26.8686 36.7663C26.9239 36.6898 26.9712 36.6089 27.0203 36.5288C27.1194 36.3678 27.2122 36.2032 27.3014 36.0359C27.6598 35.373 27.9298 34.6654 28.1046 33.9313C28.2791 33.2104 28.3026 32.4608 28.1733 31.7304C28.0288 31.0075 27.7014 30.3346 27.2229 29.7768L27.0444 29.5672L26.8472 29.3712L26.749 29.2722L26.6428 29.1715L26.4313 28.9691C26.1531 28.6929 25.8906 28.401 25.6451 28.0949C25.399 27.7869 25.1782 27.4594 24.9847 27.1154C24.7901 26.7701 24.6356 26.4034 24.5242 26.0226C24.4164 25.6431 24.3715 25.2484 24.3912 24.8542C24.4063 24.4612 24.5193 24.0783 24.7197 23.7407Z" fill="#222222"/>
<path d="M23.7131 33.1775C23.5352 33.3889 23.374 33.6142 23.2312 33.8512C23.0858 34.0823 22.959 34.3243 22.8377 34.5662C22.6024 35.0549 22.4029 35.5602 22.2406 36.0782L22.1202 36.4676L22.0166 36.8634L21.9631 37.0612L21.9185 37.2618C21.8899 37.3949 21.8596 37.5316 21.8292 37.6629C21.7712 37.9328 21.7275 38.2026 21.6659 38.4724C21.6186 38.7423 21.5767 39.0211 21.5097 39.2972C21.4758 39.0175 21.4607 38.736 21.4473 38.4535C21.4473 38.3132 21.4526 38.172 21.458 38.0308L21.4669 37.8186C21.4684 37.7476 21.4734 37.6767 21.4821 37.6063C21.4981 37.466 21.5151 37.3257 21.5338 37.1845C21.5436 37.1143 21.5508 37.0441 21.5642 36.974L21.6061 36.7653L21.6954 36.348L21.8167 35.9378C21.9875 35.3917 22.229 34.8706 22.5351 34.3881C22.6901 34.1482 22.866 33.9228 23.0608 33.7145C23.2508 33.5041 23.4707 33.3232 23.7131 33.1775Z" fill="#222222"/>
</svg>
