<svg width="30" height="30" viewBox="0 0 30 30" fill="none" xmlns="http://www.w3.org/2000/svg">
<path d="M25.8989 7.73088C24.2501 16.9664 16.9664 24.2501 7.73088 25.8989C5.55613 26.2872 3.75 24.4591 3.75 22.25V18.8125C3.75 18.2602 4.19827 17.8162 4.7492 17.7775C6.20099 17.6756 7.592 17.3533 8.88897 16.8439L11.0255 18.9804C14.5004 17.3175 17.3175 14.5004 18.9804 11.0255L16.8439 8.88898C17.3533 7.592 17.6756 6.201 17.7775 4.7492C17.8162 4.19828 18.2602 3.75 18.8125 3.75H22.25C24.4591 3.75 26.2872 5.55613 25.8989 7.73088Z" stroke="#052629" stroke-width="2" stroke-linecap="round" stroke-linejoin="round"/>
<path d="M12.2498 8.1499C11.7113 8.1499 11.1781 8.25596 10.6806 8.46203C10.1831 8.6681 9.73106 8.97013 9.3503 9.3509C8.96954 9.73166 8.6675 10.1837 8.46143 10.6812C8.25536 11.1787 8.1493 11.7119 8.1493 12.2504" stroke="#052629" stroke-width="2" stroke-linecap="round" stroke-linejoin="round"/>
<path d="M11.25 4.00122C10.2981 4.00122 9.35551 4.18871 8.47607 4.55299C7.59662 4.91727 6.79754 5.4512 6.12444 6.1243C5.45134 6.7974 4.91741 7.59648 4.55313 8.47593C4.18885 9.35537 4.00136 10.298 4.00136 11.2499" stroke="#052629" stroke-width="2" stroke-linecap="round" stroke-linejoin="round"/>
</svg>
