<svg width="193" height="99" viewBox="0 0 193 99" fill="none" xmlns="http://www.w3.org/2000/svg">
<g clip-path="url(#clip0_154_4465)">
<path d="M109.062 76.7149C112.329 75.7483 115.463 74.3838 118.393 72.6523C124.252 69.1886 129.03 64.1755 132.195 58.1708C133.781 55.2004 135.022 52.0603 135.896 48.811C136.779 45.5766 137.243 42.2431 137.276 38.8916C137.303 35.5523 136.855 32.2261 135.947 29.0114C135.038 25.8048 133.698 22.7349 131.963 19.8851C131.098 18.4639 130.147 17.0964 129.115 15.7902C128.599 15.1404 128.062 14.5046 127.509 13.8895C127.23 13.582 126.949 13.2814 126.661 12.9878L126.217 12.5531C126.075 12.4166 125.917 12.2663 125.789 12.153L127.356 11.1519C127.425 11.3946 127.469 11.5819 127.516 11.7947C127.562 12.0074 127.604 12.2062 127.641 12.4097C127.718 12.8213 127.781 13.2305 127.832 13.6421C127.932 14.4632 127.984 15.2892 127.988 16.1162C128.003 17.7734 127.821 19.4266 127.446 21.0412C127.069 22.657 126.487 24.2187 125.714 25.6888C124.935 27.1472 123.972 28.5007 122.848 29.7167C122.572 30.0196 122.284 30.3132 121.988 30.5976C121.693 30.882 121.377 31.1595 121.096 31.4161C120.519 31.9387 119.958 32.4782 119.411 33.0347C118.32 34.1587 117.295 35.3438 116.34 36.584C116.108 36.8938 115.875 37.2083 115.643 37.5273L115.303 37.9898L115.264 38.0453L115.231 38.0985L115.155 38.2233L115.006 38.4777C114.606 39.1559 114.219 39.8434 113.844 40.5402C113.472 41.2338 113.116 41.9275 112.786 42.6535C112.45 43.3713 112.153 44.1069 111.898 44.8571L111.719 44.8085C112.109 43.2597 112.638 41.7484 113.297 40.2928C113.618 39.5621 113.955 38.8391 114.308 38.1239L114.443 37.8557L114.513 37.7216L114.553 37.643L114.592 37.5759C114.699 37.4025 114.804 37.2198 114.911 37.0533C115.124 36.7134 115.341 36.3759 115.566 36.0429C116.456 34.7022 117.435 33.4215 118.495 32.2092C119.025 31.6019 119.576 31.0107 120.147 30.4358C120.438 30.1421 120.705 29.8808 120.97 29.6011C121.235 29.3213 121.491 29.0392 121.737 28.7478C123.714 26.4216 125.073 23.639 125.689 20.6551C125.989 19.1706 126.126 17.6579 126.096 16.1439C126.077 15.3878 126.021 14.6317 125.931 13.8826C125.882 13.508 125.826 13.1334 125.756 12.7658C125.721 12.5831 125.684 12.4005 125.642 12.2201C125.601 12.0397 125.554 11.8478 125.515 11.7091L124.585 8.49512L127.088 10.7102C127.279 10.879 127.43 11.0247 127.593 11.1842C127.755 11.3438 127.906 11.4964 128.058 11.6467C128.362 11.9634 128.66 12.2872 128.95 12.6132C129.533 13.2699 130.088 13.945 130.614 14.6387C131.671 16.0247 132.633 17.4793 133.494 18.9926C135.225 22.0141 136.548 25.2489 137.43 28.6137C138.307 31.973 138.706 35.4381 138.615 38.9077C138.517 42.3627 137.975 45.791 137.002 49.1093C136.047 52.4185 134.716 55.6091 133.036 58.6194C129.671 64.661 124.686 69.6549 118.637 73.0454C115.64 74.719 112.444 76.0102 109.123 76.8883L109.062 76.7149Z" fill="#052629"/>
<path d="M56.5185 45.6084C56.0785 43.9648 55.7975 42.2831 55.6794 40.5863C55.6097 39.7377 55.5864 38.8845 55.5981 38.029C55.5981 37.6035 55.619 37.1758 55.6329 36.748C55.6469 36.3203 55.6841 35.8948 55.7329 35.467C55.8126 34.6134 55.9368 33.7645 56.1048 32.9236C56.2762 32.0827 56.5006 31.2532 56.7766 30.4403C57.0439 29.6241 57.3623 28.8217 57.7063 28.0448C57.876 27.6517 58.055 27.2656 58.2293 26.8887L58.7779 25.7326C59.5264 24.2088 60.2981 22.7059 61.1465 21.2353C61.9813 19.7467 62.9131 18.3139 63.9358 16.9462C64.985 15.5757 66.1703 14.3138 67.4736 13.1796C68.1221 12.6084 68.7939 12.0581 69.5005 11.5471C69.8507 11.2912 70.2095 11.0423 70.5767 10.8003C70.7603 10.6801 70.9463 10.5691 71.1392 10.4488C71.3322 10.3286 71.5135 10.2176 71.7459 10.1089L74.0843 8.89502L73.1127 11.3714C73.0429 11.5494 72.9593 11.7876 72.8802 12.0026C72.8012 12.2177 72.7408 12.4512 72.6734 12.6778C72.5409 13.1403 72.4246 13.5888 72.3177 14.0513C72.1141 14.9791 71.9589 15.9168 71.8528 16.8606C71.632 18.7472 71.632 20.6529 71.8528 22.5394C72.0756 24.4212 72.5501 26.2649 73.2638 28.0217C73.6223 28.8983 74.0433 29.7482 74.5236 30.5651C74.9999 31.3908 75.5318 32.1834 76.1158 32.9375C76.4087 33.3144 76.7109 33.6866 77.0293 34.045C77.1874 34.2277 77.3478 34.4034 77.5128 34.5792L78.0195 35.1225C78.7131 35.8614 79.3649 36.638 79.9721 37.4486C81.184 39.062 82.2269 40.7943 83.0845 42.6187C83.9439 44.4285 84.6265 46.3163 85.123 48.2559C85.3741 49.2224 85.5716 50.1982 85.7274 51.1809C85.8848 52.165 85.9772 53.1583 86.004 54.1544H85.818C85.7054 53.1833 85.5347 52.2197 85.3066 51.2688C85.0742 50.3115 84.8115 49.3704 84.507 48.4409C84.2025 47.5114 83.8515 46.5911 83.4657 45.7009C83.0798 44.8107 82.6568 43.9275 82.1919 43.0719C81.27 41.3649 80.1858 39.7498 78.954 38.2486C78.3378 37.5045 77.6846 36.7914 76.9968 36.1122L76.4738 35.5873C76.2925 35.4092 76.1135 35.2289 75.9392 35.0416C75.5859 34.674 75.2418 34.2901 74.9188 33.8994C72.2569 30.728 70.546 26.8754 69.9817 22.7822C69.6965 20.7492 69.6629 18.689 69.8817 16.6479C69.988 15.6294 70.1541 14.618 70.3791 13.6189C70.493 13.1171 70.6116 12.62 70.7627 12.1252C70.8324 11.8786 70.9099 11.6311 70.9951 11.383C71.0788 11.1309 71.1578 10.902 71.2694 10.6222L72.6362 11.8824C72.4944 11.9541 72.3061 12.0558 72.1387 12.1506L71.6181 12.4512C71.2717 12.6547 70.9207 12.872 70.5907 13.0963C69.9143 13.5449 69.2495 14.0212 68.6056 14.523C67.3191 15.5465 66.0921 16.6419 64.9307 17.804C63.7407 18.9626 62.6629 20.2299 61.7113 21.5891C60.7614 22.9582 59.9861 24.4393 59.4032 25.9985C58.8447 27.5595 58.4263 29.1666 58.1526 30.801C57.8597 32.4195 57.5901 34.0381 57.3623 35.6567C56.8974 38.9123 56.8068 42.2118 56.7022 45.5992L56.5185 45.6084Z" fill="#052629"/>
<path d="M97.7236 79.2143C99.1231 79.7415 100.569 80.1379 102.042 80.3982C102.772 80.5369 103.509 80.6433 104.246 80.7242C104.983 80.8051 105.722 80.8722 106.461 80.9069C109.415 81.0414 112.373 80.8083 115.268 80.2132C118.149 79.6256 120.956 78.7222 123.636 77.5195C126.328 76.3286 128.904 74.8927 131.33 73.2303C132.555 72.4118 133.722 71.5401 134.919 70.629L138.499 67.9307C140.877 66.1225 143.287 64.3537 145.679 62.564C150.465 58.9824 155.288 55.4539 160.109 51.9278L160.342 53.2666C159.598 53.0145 158.793 52.7856 158.017 52.5729C157.241 52.3602 156.43 52.1498 155.63 51.9532C154.033 51.5579 152.427 51.1879 150.809 50.885C149.191 50.5821 147.555 50.3046 145.928 50.1289C145.11 50.0364 144.287 49.967 143.461 49.9347C142.635 49.8907 141.806 49.8907 140.979 49.9347C142.623 49.6429 144.293 49.5182 145.963 49.5624C147.632 49.5971 149.303 49.7173 150.96 49.9162C152.617 50.115 154.27 50.3786 155.909 50.6838C156.729 50.8434 157.548 51.0122 158.363 51.1971C159.179 51.3821 159.991 51.5694 160.823 51.8099L162.264 52.2215L161.053 53.1463C156.309 56.7835 151.567 60.4229 146.785 64.0138C144.398 65.8081 142.023 67.6255 139.619 69.4012L136.023 72.0811C134.836 72.9713 133.601 73.88 132.332 74.7124C129.788 76.3838 127.09 77.8122 124.276 78.9785C122.861 79.5575 121.413 80.0539 119.941 80.4652C118.475 80.8809 116.985 81.2098 115.48 81.4502C112.473 81.9214 109.416 81.9891 106.391 81.6514C104.888 81.4854 103.4 81.2032 101.94 80.8074C101.213 80.6086 100.492 80.3866 99.7877 80.1138C99.0804 79.8597 98.3909 79.5592 97.7236 79.2143Z" fill="#052629"/>
<path d="M92.8471 77.8987C92.5946 75.1499 92.0682 72.4328 91.2758 69.7874C90.8733 68.4825 90.3936 67.2024 89.8393 65.9538C89.558 65.3318 89.2558 64.7237 88.9351 64.1248C88.6143 63.526 88.2772 62.9387 87.917 62.3629C86.4741 60.073 84.6948 58.0107 82.6382 56.2448C80.5706 54.4809 78.2944 52.9746 75.8601 51.7591C73.401 50.5223 70.8205 49.5406 68.1593 48.8295C66.8227 48.4803 65.4676 48.1728 64.0962 47.9555C63.7545 47.893 63.4105 47.8422 63.0664 47.7959C62.7224 47.7497 62.3691 47.6988 62.0321 47.6572C61.3409 47.5832 60.649 47.5154 59.9564 47.4537C57.1797 47.2511 54.3922 47.2402 51.614 47.4213C48.8246 47.5948 46.0725 47.937 43.325 48.3694L43.676 47.3543C44.6244 48.2792 45.5146 49.2041 46.3933 50.1451C47.2719 51.0862 48.1436 52.0458 48.9897 53.0192C50.6958 54.9522 52.3508 56.9246 54.0012 58.9015C55.6515 60.8785 57.2693 62.8832 58.8825 64.8948C59.2823 65.4081 59.6797 65.896 60.0772 66.3839C60.4747 66.8717 60.8861 67.3527 61.2999 67.8267C61.7136 68.3007 62.1483 68.7516 62.5737 69.214L62.8921 69.5609L63.2245 69.8961L63.887 70.5667C64.3333 71.006 64.7981 71.4314 65.2584 71.8569L65.9697 72.4719L66.3253 72.7795L66.6949 73.0708C67.6649 73.8612 68.6775 74.5983 69.7283 75.279C70.7737 75.9553 71.8623 76.5631 72.9871 77.0987C74.1117 77.6378 75.2776 78.0871 76.4738 78.4421C78.8824 79.1675 81.3984 79.4756 83.912 79.3531C84.5442 79.323 85.1718 79.2491 85.8296 79.2028C86.4552 79.1518 87.0764 79.0583 87.6892 78.923C88.9397 78.671 90.1693 78.2987 91.4385 77.9981L91.4873 78.1785C90.8829 78.3843 90.2856 78.6409 89.6789 78.856C89.0722 79.071 88.4609 79.2976 87.8356 79.4918C87.2051 79.6883 86.5621 79.8428 85.911 79.9543C85.288 80.056 84.6418 80.1855 83.9887 80.2595C81.3526 80.5858 78.6788 80.429 76.0995 79.797C73.5295 79.1529 71.0704 78.1312 68.8031 76.7657C66.5377 75.4018 64.4326 73.7902 62.5272 71.9609C60.6435 70.1431 58.9035 68.1834 57.3228 66.0995C55.7546 64.0693 54.1778 62.0469 52.5925 60.0322C51.0073 58.0175 49.3988 56.022 47.767 54.0459L45.3264 51.0862C44.5035 50.1128 43.676 49.1208 42.8323 48.1983L42.0071 47.2942L43.1832 47.1832C45.9819 46.9165 48.7859 46.7577 51.5954 46.7069C54.401 46.6491 57.2065 46.7069 60.0075 46.8872C62.8162 47.0742 65.6108 47.4325 68.3755 47.9601C69.7562 48.2468 71.1415 48.5543 72.4967 48.9728C73.8624 49.3744 75.2009 49.8625 76.504 50.4342C77.8138 51.0109 79.0821 51.6769 80.2998 52.4273C83.965 54.7304 87.0149 57.8825 89.1884 61.6138C89.5441 62.2311 89.8858 62.86 90.1903 63.5028C90.4948 64.1456 90.7737 64.8023 91.0317 65.4659C91.5431 66.7882 91.9564 68.1461 92.2683 69.5285C92.8953 72.271 93.1563 75.0837 93.0447 77.8941L92.8471 77.8987Z" fill="#052629"/>
<path d="M109.144 76.7889C109.144 76.7889 129.987 70.5227 135.071 47.9C140.154 25.2772 127.326 17.085 127.326 17.085L126.842 12.271C126.842 12.271 142.355 24.3338 136.535 48.6353C130.715 72.9367 109.144 76.7889 109.144 76.7889Z" fill="#052629"/>
<path d="M94.4044 0C94.4044 0 87.1475 0.601177 84.93 6.01177C82.7125 11.4224 84.3256 14.4329 85.3321 16.0376C86.3386 17.6422 90.7759 22.454 91.3756 25.8622C91.9753 29.2704 90.9712 32.4798 90.9712 32.4798C90.9712 32.4798 92.1682 25.8922 87.7472 21.2516C84.1187 17.4411 82.7078 15.6375 82.3057 11.2258C82.2173 10.2293 82.5172 0.400014 94.4044 0Z" fill="#052629"/>
<path d="M91.3803 20.2503C91.2784 19.8393 91.1431 19.4372 90.9759 19.048C90.776 18.6456 86.341 11.4292 91.1781 9.62336C96.0152 7.81751 95.8153 4.21045 95.8153 4.21045C95.8153 4.21045 96.3174 7.91 92.2868 10.5251C88.2563 13.1402 90.8759 18.1554 90.9759 18.6456C91.0154 18.8422 91.3803 20.2503 91.3803 20.2503Z" fill="#052629"/>
<path d="M102.064 9.01758C102.064 9.01758 105.288 18.241 96.02 20.8469C96.0154 20.8515 102.868 16.6479 102.064 9.01758Z" fill="#052629"/>
<path d="M86.9453 22.2551C86.9453 22.2551 82.1082 23.2586 81.7061 25.0621C81.3039 26.8657 82.2988 29.1108 82.2988 29.1108C82.2988 29.1108 79.9139 27.5894 80.6973 24.861C81.5038 22.054 86.9453 22.2551 86.9453 22.2551Z" fill="#052629"/>
<path d="M85.1322 38.6973C85.1322 38.6973 81.5037 38.0961 80.8994 36.0891C80.295 34.0821 81.3015 31.2774 83.1169 29.4738C84.8416 27.7582 85.9388 24.4609 85.9388 24.4609C85.9388 24.4609 85.7644 26.935 85.2414 28.1605C84.6371 29.564 81.8152 32.1722 82.0174 34.9792C82.2197 37.7863 85.1322 38.6973 85.1322 38.6973Z" fill="#052629"/>
<path d="M96.0154 36.3018C96.0154 36.3018 98.4351 38.1076 100.653 35.4994C102.87 32.8912 105.49 29.2842 105.49 29.2842C105.49 29.2842 103.13 34.5352 101.659 36.3018C100.648 37.4926 98.8372 38.4961 96.0154 36.3018Z" fill="#052629"/>
<path d="M111.738 54.9382C111.738 51.3289 108.109 43.1066 109.318 39.9088C110.527 36.711 110.729 25.0713 110.729 25.0713C110.729 25.0713 111.426 33.7976 110.829 37.6035C110.232 41.4094 110.829 45.8235 111.031 47.627C111.233 49.4305 111.738 54.9382 111.738 54.9382Z" fill="#052629"/>
<path d="M105.085 31.8787L105.49 45.0329C105.49 45.0329 107.707 39.8998 105.085 31.8787Z" fill="#052629"/>
<path d="M86.9174 59.0447C86.9453 59.1488 86.8151 56.8042 86.8454 56.24C86.9453 54.3348 88.3562 45.7148 85.9388 43.4095C83.5214 41.1042 83.3308 39.0764 83.3308 39.0764C83.3308 39.0764 84.6999 41.0973 85.9388 42.2164C87.1777 43.3355 88.9606 44.5101 88.5585 50.1242C88.3097 53.5763 87.7519 57.7545 87.7519 59.5488C87.7519 59.6621 87.7519 59.78 87.7519 59.9118C87.7472 59.9118 86.8175 58.6725 86.9174 59.0447Z" fill="#052629"/>
<path d="M101.257 37.895C101.045 38.3418 100.899 38.8169 100.824 39.3055C100.74 39.787 100.707 40.2761 100.727 40.7645C100.746 41.2493 100.805 41.7317 100.901 42.2073C101.003 42.6786 101.138 43.1422 101.306 43.5946C101.645 44.5031 102.086 45.371 102.619 46.182C103.151 46.9937 103.74 47.7664 104.383 48.4942C105.032 49.2226 105.729 49.9093 106.44 50.5752L106.989 51.0631L107.263 51.3082L107.547 51.5718L108.114 52.099L108.642 52.6724C110.04 54.2406 111.002 56.1459 111.431 58.1986C111.627 59.2223 111.699 60.2655 111.647 61.3062C111.592 62.3362 111.436 63.3584 111.182 64.3584C110.925 65.3464 110.594 66.314 110.192 67.2533C109.793 68.1874 109.331 69.0936 108.809 69.9655C108.546 70.4002 108.274 70.828 107.986 71.2465C107.84 71.4546 107.693 71.6604 107.537 71.8661C107.382 72.0719 107.24 72.2662 107.089 72.465L105.306 74.8535C104.102 76.4374 102.902 78.0236 101.654 79.5797C102.682 77.871 103.746 76.1923 104.822 74.5113L106.45 72.0003C106.587 71.7945 106.717 71.5771 106.861 71.3806C107.005 71.184 107.128 70.9759 107.258 70.7702C107.514 70.3563 107.756 69.9331 107.988 69.5031C108.921 67.7984 109.624 65.9793 110.08 64.0925C110.533 62.2391 110.593 60.3123 110.257 58.4345C109.882 56.5764 109.03 54.8463 107.784 53.4123L107.319 52.8736L106.808 52.3695L106.55 52.1152L106.275 51.8562L105.722 51.336C104.997 50.6258 104.314 49.8755 103.674 49.0885C103.035 48.2957 102.46 47.4537 101.954 46.5705C101.449 45.6819 101.047 44.7395 100.755 43.7611C100.471 42.7799 100.353 41.7587 100.406 40.7391C100.446 39.7352 100.739 38.7574 101.257 37.895Z" fill="#052629"/>
<path d="M98.6373 62.1548C98.1723 62.6972 97.7525 63.2764 97.3821 63.8866C97.0009 64.4809 96.6732 65.1029 96.3547 65.7249C95.742 66.9811 95.2223 68.2802 94.7997 69.6117L94.4859 70.6129L94.2186 71.6303L94.0768 72.1389L93.9629 72.6546C93.8862 72.9968 93.8072 73.3482 93.7305 73.6858C93.5794 74.3795 93.4655 75.0732 93.3051 75.7668C93.1819 76.4605 93.0726 77.1773 92.8983 77.8871C92.81 77.168 92.7728 76.4443 92.7356 75.7183C92.7356 75.3576 92.7495 74.9945 92.7635 74.6315L92.7867 74.0858C92.7902 73.9033 92.8041 73.7211 92.8286 73.5402C92.8704 73.1794 92.9123 72.8187 92.9634 72.4557C92.9866 72.2754 93.0052 72.095 93.0401 71.9147L93.1493 71.3782L93.3818 70.3054L93.6956 69.251C94.1413 67.8472 94.7704 66.5078 95.5668 65.267C95.9703 64.6503 96.4285 64.0707 96.9358 63.5352C97.4317 62.9944 98.0051 62.5292 98.6373 62.1548Z" fill="#052629"/>
<path d="M1.34119 90.4471V93.742H5.23229V94.7802H1.34119V98.8312H0.0581055V89.4089H5.89476V90.4471H1.34119Z" fill="#052629" stroke="#052629" stroke-width="0.5" stroke-miterlimit="10"/>
<path d="M16.1989 94.1235C16.2056 94.7859 16.0914 95.444 15.8618 96.0658C15.6515 96.6321 15.3272 97.1499 14.9088 97.5872C14.4928 98.0174 13.9897 98.3547 13.4328 98.5768C12.8261 98.8177 12.1776 98.9372 11.5244 98.9283C10.8735 98.9374 10.2272 98.818 9.62305 98.5768C9.06642 98.3541 8.56342 98.0169 8.14703 97.5872C7.73345 97.1483 7.41325 96.6308 7.20564 96.0658C6.75632 94.8095 6.75632 93.4375 7.20564 92.1813C7.41655 91.6143 7.73985 91.0954 8.15633 90.6552C8.57236 90.2234 9.07533 89.8838 9.63235 89.6586C10.2364 89.4167 10.8826 89.2965 11.5337 89.3049C12.1871 89.2967 12.8356 89.4169 13.4421 89.6586C13.9994 89.8832 14.5025 90.2229 14.9181 90.6552C15.3361 91.0947 15.6603 91.6138 15.8711 92.1813C16.0975 92.8036 16.2086 93.4617 16.1989 94.1235ZM14.8832 94.1235C14.8924 93.5949 14.8139 93.0683 14.6508 92.5651C14.5082 92.1338 14.2779 91.7364 13.9744 91.3974C13.6815 91.0784 13.3211 90.828 12.9191 90.6644C12.4759 90.4878 12.0018 90.4006 11.5244 90.4078C11.0516 90.4014 10.5823 90.4886 10.1437 90.6644C9.74067 90.8285 9.37881 91.0788 9.08378 91.3974C8.7795 91.7363 8.54848 92.1337 8.40505 92.5651C8.08889 93.5787 8.08889 94.6637 8.40505 95.6773C8.55015 96.1045 8.78107 96.4978 9.08378 96.8334C9.37698 97.1564 9.73915 97.41 10.1437 97.5757C10.5828 97.7496 11.0519 97.836 11.5244 97.83C12.0016 97.8368 12.4754 97.7504 12.9191 97.5757C13.3213 97.4146 13.6819 97.1657 13.9744 96.8473C14.2764 96.5116 14.5065 96.1182 14.6508 95.6912C14.8133 95.1848 14.8895 94.6549 14.8763 94.1235H14.8832Z" fill="#052629" stroke="#052629" stroke-width="0.5" stroke-miterlimit="10"/>
<path d="M21.6846 97.8185C22.0445 97.8236 22.4018 97.7568 22.7352 97.6219C23.0338 97.4969 23.3012 97.3083 23.5185 97.0693C23.7376 96.8225 23.9037 96.5337 24.0067 96.2207C24.1234 95.8712 24.1808 95.5047 24.1763 95.1363V89.4089H25.4525V95.1363C25.457 95.652 25.368 96.1642 25.1898 96.6485C25.0262 97.0964 24.7723 97.5064 24.4437 97.8532C24.1093 98.1996 23.7054 98.4722 23.2582 98.6532C22.2447 99.0377 21.1244 99.0377 20.1109 98.6532C19.6639 98.4747 19.2599 98.2039 18.9258 97.8588C18.5916 97.5136 18.3348 97.1019 18.1723 96.6508C17.9931 96.1668 17.904 95.6544 17.9097 95.1386V89.4089H19.1858V95.1294C19.1816 95.4975 19.2381 95.8639 19.3531 96.2138C19.4573 96.5267 19.6241 96.8154 19.8436 97.0624C20.0623 97.3014 20.3303 97.4907 20.6293 97.6173C20.9634 97.7559 21.3226 97.8244 21.6846 97.8185Z" fill="#052629" stroke="#052629" stroke-width="0.5" stroke-miterlimit="10"/>
<path d="M35.4244 89.4089V98.8312H34.7829C34.6954 98.8337 34.6086 98.8155 34.5295 98.778C34.4506 98.733 34.3818 98.6724 34.3273 98.6L28.8486 91.4992C28.8486 91.6102 28.8649 91.7165 28.8695 91.8229C28.8742 91.9292 28.8695 92.0264 28.8695 92.1165V98.822H27.7468V89.4089H28.407C28.4557 89.406 28.5046 89.406 28.5534 89.4089C28.5906 89.4152 28.6266 89.4269 28.6603 89.4436C28.6937 89.4605 28.7243 89.4823 28.751 89.5083C28.7871 89.542 28.8205 89.5783 28.8509 89.617L34.3296 96.7109C34.3296 96.5976 34.3133 96.4797 34.3064 96.378C34.2994 96.2762 34.3064 96.1698 34.3064 96.0727V89.4089H35.4244Z" fill="#052629" stroke="#052629" stroke-width="0.5" stroke-miterlimit="10"/>
<path d="M44.2479 90.4818H41.182V98.8312H39.9059V90.4818H36.833V89.4089H44.2479V90.4818Z" fill="#052629" stroke="#052629" stroke-width="0.5" stroke-miterlimit="10"/>
<path d="M52.4252 98.8312H51.4327C51.3333 98.8352 51.2356 98.805 51.1561 98.7457C51.0849 98.6884 51.0304 98.6134 50.998 98.5283L50.1101 96.2531H45.861L44.9754 98.5283C44.9462 98.6113 44.8938 98.6843 44.8243 98.7387C44.745 98.8009 44.6463 98.8336 44.5454 98.8312H43.5552L47.3417 89.4089H48.6364L52.4252 98.8312ZM49.7544 95.3328L48.2668 91.4992C48.2226 91.3859 48.1761 91.2541 48.1273 91.1015C48.0785 90.9489 48.0344 90.7893 47.9902 90.6182C47.9144 90.9198 47.8197 91.2163 47.7066 91.5061L46.219 95.3328H49.7544Z" fill="#052629" stroke="#052629" stroke-width="0.5" stroke-miterlimit="10"/>
<path d="M54.9564 98.8312H53.6733V89.4089H54.9564V98.8312Z" fill="#052629" stroke="#052629" stroke-width="0.5" stroke-miterlimit="10"/>
<path d="M65.0492 89.4089V98.8312H64.4076C64.3194 98.8336 64.2318 98.8154 64.152 98.778C64.0733 98.7335 64.0052 98.6728 63.9521 98.5999L58.471 91.4991C58.471 91.6101 58.4873 91.7165 58.492 91.8228C58.4966 91.9292 58.492 92.0263 58.492 92.1165V98.8219H57.3669V89.4089H58.0294C58.0774 89.406 58.1255 89.406 58.1735 89.4089C58.2107 89.4152 58.2467 89.4269 58.2804 89.4435C58.3142 89.4609 58.3455 89.4827 58.3734 89.5083C58.4087 89.542 58.4413 89.5783 58.471 89.617L63.9497 96.7109C63.9497 96.5976 63.9335 96.4796 63.9288 96.3779C63.9242 96.2762 63.9172 96.1698 63.9172 96.0727V89.4089H65.0492Z" fill="#052629" stroke="#052629" stroke-width="0.5" stroke-miterlimit="10"/>
<path d="M79.6025 94.1236C79.6104 94.7861 79.4962 95.4444 79.2654 96.0659C79.0551 96.6323 78.7308 97.15 78.3124 97.5873C77.8964 98.0175 77.3933 98.3548 76.8364 98.577C75.6102 99.0456 74.2529 99.0456 73.0266 98.577C72.47 98.3543 71.967 98.017 71.5506 97.5873C71.1337 97.1492 70.8103 96.6317 70.5999 96.0659C70.1506 94.8096 70.1506 93.4376 70.5999 92.1814C70.8108 91.6145 71.1341 91.0955 71.5506 90.6553C71.9666 90.2235 72.4696 89.8839 73.0266 89.6587C74.2523 89.187 75.6107 89.187 76.8364 89.6587C77.3937 89.8833 77.8968 90.223 78.3124 90.6553C78.7304 91.0948 79.0546 91.6139 79.2654 92.1814C79.4962 92.8029 79.6104 93.4612 79.6025 94.1236ZM78.2868 94.1236C78.296 93.595 78.2175 93.0684 78.0544 92.5652C77.9117 92.1345 77.6823 91.7372 77.3803 91.3975C77.0866 91.0784 76.7254 90.8281 76.3227 90.6645C75.4311 90.3224 74.4435 90.3224 73.552 90.6645C73.1489 90.8286 72.787 91.0789 72.492 91.3975C72.1877 91.7364 71.9567 92.1338 71.8133 92.5652C71.4971 93.5788 71.4971 94.6639 71.8133 95.6774C71.9584 96.1046 72.1893 96.4979 72.492 96.8336C72.7867 97.1515 73.1487 97.4003 73.552 97.5619C74.4441 97.9009 75.4305 97.9009 76.3227 97.5619C76.7256 97.4009 77.087 97.152 77.3803 96.8336C77.6807 96.4971 77.91 96.1039 78.0544 95.6774C78.2177 95.1759 78.2962 94.6508 78.2868 94.1236Z" fill="#052629" stroke="#052629" stroke-width="0.5" stroke-miterlimit="10"/>
<path d="M82.7148 90.4471V93.742H86.6083V94.7802H82.7148V98.8312H81.4341V89.4089H87.2684V90.4471H82.7148Z" fill="#052629" stroke="#052629" stroke-width="0.5" stroke-miterlimit="10"/>
<path d="M95.0275 95.0761V98.8312H93.7467V95.0761L90.2764 89.4089H91.4014C91.4984 89.4033 91.5942 89.4329 91.671 89.4921C91.7413 89.5516 91.7997 89.6238 91.843 89.7048L94.0117 93.3674C94.0908 93.5215 94.1628 93.6649 94.2279 93.7975C94.2935 93.9287 94.3509 94.0639 94.3999 94.2021C94.4487 94.0657 94.5045 93.9316 94.5673 93.7975C94.63 93.6634 94.6951 93.52 94.7718 93.3674L96.9289 89.7141C96.9711 89.6363 97.0279 89.5672 97.0963 89.5106C97.1711 89.4469 97.2675 89.4138 97.3659 89.4181H98.4956L95.0275 95.0761Z" fill="#052629" stroke="#052629" stroke-width="0.5" stroke-miterlimit="10"/>
<path d="M107.97 94.1236C107.978 94.7861 107.864 95.4444 107.633 96.0659C107.422 96.6317 107.099 97.1492 106.682 97.5873C106.265 98.0171 105.761 98.3543 105.204 98.577C103.978 99.0456 102.62 99.0456 101.394 98.577C100.838 98.3548 100.335 98.0175 99.9204 97.5873C99.502 97.15 99.1777 96.6323 98.9674 96.0659C98.518 94.8096 98.518 93.4376 98.9674 92.1814C99.1782 91.6139 99.5024 91.0948 99.9204 90.6553C100.335 90.2231 100.837 89.8834 101.394 89.6587C102.62 89.187 103.978 89.187 105.204 89.6587C105.762 89.8839 106.265 90.2234 106.682 90.6553C107.099 91.0955 107.422 91.6145 107.633 92.1814C107.864 92.8029 107.978 93.4612 107.97 94.1236ZM106.654 94.1236C106.663 93.595 106.585 93.0684 106.422 92.5652C106.28 92.1341 106.051 91.7366 105.748 91.3975C105.454 91.0784 105.093 90.8281 104.69 90.6645C103.799 90.3224 102.811 90.3224 101.919 90.6645C101.516 90.8286 101.154 91.0789 100.859 91.3975C100.555 91.7359 100.325 92.1335 100.183 92.5652C99.8638 93.5783 99.8638 94.6643 100.183 95.6774C100.326 96.1049 100.557 96.4984 100.859 96.8336C101.154 97.1515 101.516 97.4003 101.919 97.5619C102.812 97.9009 103.798 97.9009 104.69 97.5619C105.093 97.4009 105.454 97.152 105.748 96.8336C106.049 96.4977 106.278 96.1043 106.422 95.6774C106.585 95.1759 106.664 94.6508 106.654 94.1236Z" fill="#052629" stroke="#052629" stroke-width="0.5" stroke-miterlimit="10"/>
<path d="M113.456 97.8185C113.815 97.8241 114.173 97.7572 114.506 97.6219C114.805 97.4969 115.072 97.3083 115.289 97.0693C115.509 96.822 115.675 96.5334 115.78 96.2207C115.895 95.8708 115.951 95.5044 115.947 95.1363V89.4089H117.223V95.1363C117.229 95.6518 117.14 96.1641 116.963 96.6485C116.802 97.0964 116.549 97.5065 116.222 97.8532C115.888 98.2001 115.484 98.4727 115.036 98.6532C114.023 99.0377 112.902 99.0377 111.889 98.6532C111.441 98.4752 111.036 98.2047 110.701 97.8595C110.366 97.5144 110.109 97.1024 109.946 96.6508C109.768 96.1664 109.68 95.6541 109.685 95.1386V89.4089H110.959V95.1294C110.954 95.4977 111.012 95.8643 111.129 96.2138C111.231 96.527 111.397 96.8159 111.617 97.0624C111.836 97.3014 112.104 97.4907 112.403 97.6173C112.736 97.7556 113.094 97.8241 113.456 97.8185Z" fill="#052629" stroke="#052629" stroke-width="0.5" stroke-miterlimit="10"/>
<path d="M125.928 90.4818H122.86V98.8312H121.584V90.4818H118.511V89.4089H125.928V90.4818Z" fill="#052629" stroke="#052629" stroke-width="0.5" stroke-miterlimit="10"/>
<path d="M135.003 89.4089V98.8312H133.72V94.5444H128.606V98.8312H127.323V89.4089H128.606V93.6102H133.72V89.4089H135.003Z" fill="#052629" stroke="#052629" stroke-width="0.5" stroke-miterlimit="10"/>
<path d="M150.661 89.4089V98.8312H149.536V91.9084C149.536 91.8159 149.536 91.7165 149.536 91.6124C149.536 91.5084 149.549 91.3997 149.559 91.2887L146.305 97.1803C146.265 97.2699 146.2 97.346 146.117 97.3987C146.035 97.4514 145.938 97.4784 145.84 97.4762H145.654C145.555 97.4784 145.459 97.4514 145.376 97.3987C145.293 97.346 145.228 97.2699 145.189 97.1803L141.888 91.2633C141.915 91.4773 141.929 91.6927 141.93 91.9084V98.8312H140.805V89.4089H141.751C141.84 89.406 141.93 89.417 142.016 89.4413C142.095 89.4808 142.157 89.5461 142.193 89.6262L145.465 95.4253C145.519 95.5293 145.57 95.6403 145.621 95.7536C145.672 95.8669 145.719 95.9848 145.763 96.1028C145.807 95.9825 145.854 95.8715 145.902 95.7513C145.948 95.6371 146.001 95.5259 146.06 95.4184L149.273 89.6262C149.306 89.545 149.368 89.479 149.447 89.4413C149.534 89.4172 149.624 89.4062 149.714 89.4089H150.661Z" fill="#052629" stroke="#052629" stroke-width="0.5" stroke-miterlimit="10"/>
<path d="M158.922 97.7907V98.8312H153.078V89.4089H158.915V90.4471H154.361V93.5779H158.061V94.5698H154.361V97.7838L158.922 97.7907Z" fill="#052629" stroke="#052629" stroke-width="0.5" stroke-miterlimit="10"/>
<path d="M168.921 94.1234C168.93 94.7807 168.816 95.4339 168.584 96.0495C168.374 96.6053 168.051 97.1116 167.633 97.5363C167.214 97.9544 166.71 98.2798 166.155 98.4912C165.547 98.7238 164.9 98.8391 164.249 98.8311H160.714V89.4088H164.249C164.9 89.4012 165.547 89.5157 166.155 89.7464C166.711 89.9594 167.215 90.2872 167.633 90.7083C168.051 91.1338 168.374 91.6409 168.584 92.1973C168.816 92.813 168.93 93.4661 168.921 94.1234ZM167.606 94.1234C167.615 93.597 167.537 93.0727 167.373 92.5719C167.23 92.1447 167.001 91.7512 166.699 91.4158C166.405 91.0994 166.044 90.8529 165.641 90.6944C165.197 90.5218 164.724 90.437 164.247 90.4447H161.992V97.8068H164.247C164.724 97.8145 165.197 97.7296 165.641 97.5571C166.043 97.3986 166.405 97.1529 166.699 96.838C167.002 96.5034 167.232 96.1097 167.373 95.6819C167.537 95.1789 167.616 94.6522 167.606 94.1234Z" fill="#052629" stroke="#052629" stroke-width="0.5" stroke-miterlimit="10"/>
<path d="M175.611 90.8817C175.578 90.9393 175.534 90.9897 175.481 91.0297C175.432 91.0633 175.373 91.0803 175.313 91.0783C175.216 91.0692 175.123 91.0304 175.048 90.9673C174.948 90.8933 174.816 90.8101 174.669 90.7199C174.495 90.6204 174.311 90.5383 174.121 90.4748C173.87 90.3945 173.608 90.3562 173.345 90.3615C173.087 90.3572 172.831 90.3963 172.587 90.4771C172.385 90.5445 172.199 90.6505 172.038 90.7892C171.893 90.9168 171.779 91.0747 171.703 91.2517C171.628 91.4335 171.59 91.6285 171.592 91.8251C171.582 92.0587 171.651 92.2889 171.787 92.4795C171.927 92.6611 172.102 92.8122 172.303 92.9234C172.534 93.0538 172.778 93.1607 173.031 93.2425L173.863 93.5223C174.146 93.6194 174.423 93.7281 174.695 93.8483C174.959 93.9661 175.204 94.1219 175.423 94.3108C175.639 94.4994 175.815 94.7299 175.939 94.9882C176.077 95.2987 176.143 95.6362 176.131 95.9756C176.134 96.3704 176.063 96.7623 175.922 97.1317C175.785 97.4856 175.574 97.8069 175.304 98.0751C175.017 98.3506 174.677 98.5654 174.304 98.7063C173.875 98.8661 173.419 98.9445 172.961 98.9375C172.384 98.9451 171.811 98.8324 171.28 98.6069C170.794 98.3971 170.356 98.091 169.993 97.7074L170.362 97.1039C170.398 97.0557 170.442 97.0142 170.492 96.9814C170.542 96.9491 170.6 96.9322 170.66 96.9328C170.73 96.9369 170.798 96.961 170.855 97.0022C170.927 97.0484 171.011 97.1062 171.104 97.1756C171.197 97.245 171.301 97.3236 171.42 97.4068C171.548 97.496 171.684 97.5734 171.827 97.638C171.993 97.7142 172.167 97.7731 172.345 97.8138C172.56 97.8603 172.78 97.8828 173 97.8808C173.277 97.8851 173.552 97.8429 173.814 97.756C174.038 97.6816 174.243 97.5619 174.418 97.4045C174.584 97.2527 174.713 97.0664 174.797 96.8588C174.887 96.6384 174.932 96.4028 174.93 96.1652C174.94 95.9193 174.871 95.6765 174.735 95.4715C174.6 95.2823 174.425 95.1245 174.223 95.009C173.993 94.8783 173.749 94.7736 173.496 94.6969L172.663 94.4333C172.381 94.3434 172.103 94.2392 171.831 94.1212C171.565 94.0078 171.319 93.8515 171.104 93.6587C170.884 93.4614 170.709 93.2203 170.59 92.9512C170.329 92.3049 170.329 91.5835 170.59 90.9372C170.721 90.6253 170.915 90.3435 171.16 90.1095C171.424 89.8576 171.736 89.6604 172.078 89.5291C172.478 89.3792 172.903 89.3062 173.331 89.3141C173.823 89.3079 174.313 89.3925 174.774 89.5638C175.201 89.726 175.592 89.9713 175.922 90.2852L175.611 90.8817Z" fill="#052629" stroke="#052629" stroke-width="0.5" stroke-miterlimit="10"/>
<path d="M180.734 89.4088C181.262 89.3991 181.789 89.4693 182.296 89.6169C182.7 89.7333 183.075 89.9334 183.395 90.2042C183.684 90.4558 183.907 90.7731 184.046 91.1291C184.195 91.5134 184.268 91.9222 184.262 92.3338C184.268 92.7461 184.189 93.1552 184.03 93.5362C183.879 93.8966 183.647 94.2183 183.354 94.4772C183.031 94.7536 182.655 94.962 182.249 95.09C181.76 95.2488 181.248 95.3269 180.734 95.3212H179.214V98.845H177.94V89.4088H180.734ZM180.734 94.2946C181.062 94.3003 181.389 94.2511 181.701 94.1489C181.958 94.062 182.195 93.9244 182.398 93.7443C182.589 93.5737 182.738 93.3616 182.833 93.1246C182.931 92.8708 182.98 92.601 182.977 92.3292C182.992 92.0683 182.949 91.8074 182.853 91.5643C182.757 91.3213 182.609 91.1018 182.419 90.921C182.047 90.5835 181.482 90.4147 180.725 90.4147H179.214V94.2946H180.734Z" fill="#052629" stroke="#052629" stroke-width="0.5" stroke-miterlimit="10"/>
<path d="M192.914 98.8312H191.924C191.824 98.8352 191.725 98.805 191.645 98.7457C191.574 98.6878 191.52 98.613 191.487 98.5283L190.603 96.2531H186.352L185.466 98.5283C185.435 98.611 185.382 98.6837 185.313 98.7387C185.235 98.8009 185.137 98.8336 185.036 98.8312H184.044L187.833 89.4089H189.127L192.914 98.8312ZM190.243 95.3328L188.758 91.4992C188.714 91.3859 188.667 91.2541 188.618 91.1015C188.57 90.9489 188.523 90.7893 188.479 90.6182C188.405 90.9204 188.311 91.2171 188.195 91.5061L186.708 95.3328H190.243Z" fill="#052629" stroke="#052629" stroke-width="0.5" stroke-miterlimit="10"/>
</g>
<defs>
<clipPath id="clip0_154_4465">
<rect width="193" height="99" fill="white"/>
</clipPath>
</defs>
</svg>
