<svg width="30" height="30" viewBox="0 0 30 30" fill="none" xmlns="http://www.w3.org/2000/svg">
<path d="M21.25 2.5H8.75C5.29822 2.5 2.5 5.29822 2.5 8.75V21.25C2.5 24.7018 5.29822 27.5 8.75 27.5H21.25C24.7018 27.5 27.5 24.7018 27.5 21.25V8.75C27.5 5.29822 24.7018 2.5 21.25 2.5Z" stroke="white" stroke-width="2" stroke-linecap="round" stroke-linejoin="round"/>
<path d="M20 14.2125C20.1543 15.2528 19.9766 16.3153 19.4922 17.2488C19.0078 18.1823 18.2414 18.9393 17.302 19.4121C16.3626 19.8849 15.2981 20.0495 14.2597 19.8824C13.2214 19.7153 12.2622 19.2251 11.5185 18.4815C10.7749 17.7378 10.2847 16.7786 10.1176 15.7403C9.9505 14.702 10.1151 13.6374 10.5879 12.698C11.0607 11.7586 11.8177 10.9922 12.7512 10.5078C13.6847 10.0234 14.7472 9.84575 15.7875 10C16.8487 10.1574 17.8311 10.6518 18.5896 11.4104C19.3482 12.1689 19.8426 13.1514 20 14.2125Z" stroke="white" stroke-width="2" stroke-linecap="round" stroke-linejoin="round"/>
<path d="M22.4932 8.03332C22.5125 8.16336 22.4903 8.29617 22.4298 8.41286C22.3692 8.52954 22.2734 8.62417 22.156 8.68327C22.0386 8.74237 21.9055 8.76295 21.7757 8.74206C21.6459 8.72118 21.526 8.6599 21.4331 8.56694C21.3401 8.47398 21.2788 8.35408 21.2579 8.22429C21.2371 8.0945 21.2576 7.96143 21.3167 7.84401C21.3758 7.72658 21.4705 7.63078 21.5871 7.57024C21.7038 7.50969 21.8366 7.48748 21.9667 7.50676C22.0993 7.52643 22.2221 7.58824 22.3169 7.68306C22.4118 7.77788 22.4736 7.90068 22.4932 8.03332Z" stroke="white" stroke-width="2" stroke-linecap="round" stroke-linejoin="round"/>
</svg>
