<svg width="223" height="98" viewBox="0 0 223 98" fill="none" xmlns="http://www.w3.org/2000/svg">
<g clip-path="url(#clip0_304_468)">
<path d="M120.132 73.2027C123.223 72.2809 126.189 70.9788 128.962 69.3262C134.504 66.0194 139.024 61.2362 142.021 55.5077C143.52 52.6729 144.695 49.6766 145.522 46.5764C146.357 43.4898 146.796 40.3091 146.828 37.1111C146.854 33.9247 146.43 30.7507 145.57 27.6833C144.709 24.6237 143.442 21.6945 141.801 18.9748C140.983 17.6181 140.082 16.3132 139.105 15.0673C138.616 14.4473 138.111 13.8406 137.585 13.2537C137.322 12.9595 137.055 12.6727 136.782 12.3932L136.371 11.9806C136.235 11.8504 136.085 11.707 135.966 11.5989L137.451 10.6413C137.517 10.873 137.559 11.0517 137.602 11.2547C137.646 11.4577 137.686 11.6474 137.721 11.8416C137.794 12.2343 137.853 12.6248 137.899 13.0176C137.996 13.8008 138.045 14.5892 138.047 15.3784C138.06 16.96 137.886 18.5377 137.528 20.0779C136.825 23.1717 135.325 26.0262 133.178 28.3562C132.915 28.6504 132.643 28.9306 132.362 29.1968C132.087 29.4704 131.786 29.733 131.519 29.9779C130.971 30.4765 130.44 30.9913 129.925 31.5223C128.893 32.5949 127.923 33.7257 127.02 34.9091C126.793 35.2033 126.573 35.5034 126.36 35.8093L126.041 36.2506L126.004 36.3035L125.973 36.3543L125.9 36.4734L125.758 36.7161C125.381 37.3626 125.016 38.0201 124.669 38.6842C124.321 39.3483 123.978 40.008 123.668 40.7008C123.347 41.3797 123.065 42.0766 122.824 42.788L122.654 42.7417C123.024 41.2637 123.524 39.8217 124.148 38.4327C124.451 37.7355 124.77 37.0456 125.104 36.3631L125.232 36.1072L125.296 35.9792L125.335 35.9042L125.373 35.8402C125.474 35.6747 125.573 35.5004 125.674 35.3416C125.876 35.0172 126.081 34.6951 126.292 34.3774C127.135 33.098 128.061 31.876 129.065 30.7192C129.567 30.1397 130.087 29.5756 130.627 29.0269C130.904 28.7467 131.154 28.4974 131.405 28.2304C131.656 27.9635 131.9 27.6943 132.131 27.4163C134.002 25.1971 135.288 22.5417 135.87 19.694C136.151 18.2809 136.275 16.841 136.241 15.4005C136.226 14.679 136.173 13.9575 136.087 13.2426C136.041 12.8852 135.988 12.5278 135.922 12.177C135.889 12.0027 135.854 11.8284 135.815 11.6563C135.775 11.4842 135.731 11.301 135.694 11.1686L134.814 8.10181L137.182 10.2155C137.363 10.3766 137.504 10.5156 137.657 10.6678C137.811 10.82 137.954 10.9657 138.097 11.1091C138.388 11.4113 138.669 11.7202 138.944 12.0313C139.495 12.6579 140.02 13.3022 140.519 13.9641C143.517 17.9434 145.707 22.474 146.967 27.2994C147.796 30.505 148.173 33.8114 148.088 37.1221C147.995 40.4189 147.482 43.6903 146.562 46.8566C145.658 50.0143 144.4 53.0588 142.81 55.9313C139.621 61.6965 134.901 66.4616 129.175 69.6968C126.34 71.2936 123.316 72.5256 120.174 73.3638L120.132 73.2027Z" fill="#052629"/>
<path d="M70.4209 43.5204C70.0046 41.9521 69.7388 40.3473 69.627 38.7282C69.5611 37.9185 69.5391 37.1043 69.5501 36.288C69.5501 35.882 69.5677 35.4738 69.5831 35.0656C69.5984 34.6575 69.6314 34.2515 69.6754 33.8433C69.7505 33.0286 69.8687 32.2184 70.0295 31.4163C70.1917 30.6139 70.404 29.8224 70.6651 29.0467C70.918 28.2678 71.2193 27.5022 71.5447 26.7609C71.7031 26.3858 71.8746 26.0173 72.0396 25.6577L72.5586 24.5545C73.2667 23.1005 73.9969 21.6664 74.7996 20.2631C75.5895 18.8427 76.471 17.4755 77.4386 16.1703C78.4313 14.8626 79.5527 13.6585 80.7858 12.5762C81.3994 12.0312 82.035 11.5061 82.7013 11.0185C83.0356 10.7736 83.3743 10.5353 83.7218 10.3058C83.8955 10.1911 84.0715 10.0852 84.254 9.97047C84.4365 9.85574 84.6081 9.74983 84.828 9.64613L87.0404 8.48779L86.1211 10.8486C86.0551 11.0185 85.976 11.2457 85.9012 11.4509C85.8264 11.6561 85.767 11.879 85.7055 12.0952C85.5801 12.5365 85.468 12.9645 85.369 13.4058C85.1753 14.2909 85.0284 15.1858 84.9291 16.0865C84.7202 17.8867 84.7202 19.7051 84.9291 21.5053C85.1388 23.3012 85.5878 25.0606 86.2641 26.7366C86.6033 27.573 87.0017 28.3841 87.456 29.1636C87.9059 29.952 88.4092 30.7083 88.9625 31.4273C89.2396 31.787 89.5255 32.1422 89.8268 32.4842C89.9763 32.6585 90.1281 32.8262 90.2842 32.9939L90.7637 33.5124C91.4194 34.221 92.0354 34.9657 92.6088 35.743C93.7569 37.2819 94.7444 38.935 95.5557 40.6764C96.3681 42.4034 97.0133 44.2047 97.4822 46.0555C97.722 46.9778 97.9089 47.9089 98.0562 48.8466C98.2072 49.784 98.2969 50.7304 98.3245 51.6795H98.1486C98.0385 50.7499 97.874 49.8275 97.656 48.9172C97.4361 48.0037 97.1875 47.1058 96.8973 46.2188C96.607 45.3318 96.2793 44.4537 95.912 43.6043C95.5447 42.7548 95.1489 41.912 94.709 41.0956C93.8361 39.4667 92.8095 37.9255 91.6433 36.4932C91.0611 35.783 90.4438 35.1026 89.7938 34.4545L89.288 33.958C89.1164 33.7882 88.9471 33.6161 88.7822 33.4373C88.4479 33.0865 88.1224 32.7203 87.8167 32.3474C85.2973 29.3218 83.6784 25.6453 83.1456 21.7392C82.8791 19.7988 82.8518 17.8328 83.0642 15.8857C83.1648 14.9139 83.3219 13.9488 83.5348 12.9954C83.6426 12.5166 83.7548 12.0422 83.8955 11.5701C83.9637 11.334 84.0363 11.0979 84.1154 10.8618C84.1946 10.6258 84.2694 10.4029 84.3749 10.1359L85.6681 11.3384C85.5339 11.4068 85.3558 11.5039 85.1974 11.5944L84.7048 11.8812C84.3771 12.0753 84.0451 12.2827 83.7328 12.4968C83.0928 12.9248 82.4638 13.3793 81.8547 13.8581C80.638 14.8353 79.4771 15.8806 78.3777 16.9889C77.2532 18.0951 76.2342 19.3043 75.334 20.6007C74.4352 21.9071 73.7017 23.3205 73.1502 24.8083C72.6218 26.2978 72.2259 27.8313 71.967 29.3909C71.6899 30.9353 71.4326 32.4798 71.2193 34.0242C70.7794 37.1308 70.6937 40.2793 70.5947 43.5116L70.4209 43.5204Z" fill="#052629"/>
<path d="M109.406 75.5878C110.726 76.0901 112.09 76.4683 113.479 76.7175C114.17 76.8499 114.867 76.9514 115.564 77.0286C116.261 77.1058 116.961 77.1698 117.66 77.2029C120.454 77.3313 123.252 77.109 125.991 76.541C128.724 75.9819 131.388 75.1198 133.932 73.9706C136.472 72.8336 138.901 71.4635 141.189 69.8778C142.351 69.0967 143.455 68.2649 144.587 67.3956L147.972 64.8208C150.224 63.0954 152.502 61.4075 154.767 59.6998C159.295 56.2822 163.859 52.9153 168.42 49.5506L168.64 50.828C167.934 50.5876 167.175 50.3691 166.441 50.1661C165.706 49.9631 164.939 49.7624 164.182 49.5748C162.671 49.1975 161.152 48.8445 159.621 48.5555C158.09 48.2665 156.542 48.0017 155.003 47.834C154.226 47.7458 153.45 47.6796 152.669 47.6487C151.887 47.6068 151.103 47.6068 150.32 47.6487C151.876 47.3702 153.456 47.2512 155.036 47.2935C156.615 47.3265 158.194 47.4413 159.764 47.631C161.334 47.8208 162.893 48.0723 164.446 48.3635C165.222 48.5158 165.985 48.6768 166.768 48.8534C167.551 49.0299 168.308 49.2086 169.095 49.438L170.459 49.8308L169.313 50.7133C164.824 54.1839 160.338 57.6567 155.814 61.0832C153.553 62.7954 151.308 64.5296 149.034 66.224L145.632 68.7812C144.508 69.6307 143.338 70.4978 142.139 71.2921C139.732 72.8869 137.18 74.2499 134.517 75.3628C133.182 75.9146 131.816 76.3883 130.426 76.7815C129.039 77.1781 127.63 77.492 126.206 77.7214C123.361 78.171 120.469 78.2356 117.607 77.9133C116.185 77.7552 114.777 77.4859 113.396 77.108C112.707 76.9183 112.026 76.7065 111.357 76.4461C110.688 76.2041 110.037 75.9174 109.406 75.5878Z" fill="#052629"/>
<path d="M104.792 74.3324C104.553 71.7093 104.054 69.1166 103.304 66.5925C102.923 65.3473 102.469 64.1258 101.944 62.9343C101.681 62.3408 101.392 61.7605 101.091 61.1891C100.79 60.6176 100.469 60.0572 100.128 59.5078C98.7621 57.3232 97.0787 55.3555 95.1335 53.6698C93.1769 51.9872 91.0235 50.5499 88.7206 49.3895C86.394 48.2093 83.9525 47.2725 81.4346 46.594C80.1679 46.2608 78.8879 45.9674 77.5882 45.76C77.2649 45.7004 76.9416 45.6519 76.6161 45.6078C76.2907 45.5636 75.9564 45.5151 75.6375 45.4754C74.9836 45.4048 74.329 45.34 73.6736 45.2812C71.0465 45.0878 68.4092 45.0775 65.7806 45.2503C63.1526 45.4158 60.5377 45.7423 57.9383 46.1549L58.2681 45.1863C59.1654 46.0689 60.0077 46.9514 60.8412 47.8494C61.6747 48.7474 62.495 49.663 63.2955 50.5919C64.9097 52.4364 66.4778 54.3185 68.0392 56.2049C69.6007 58.0914 71.1313 60.0043 72.6576 61.9238C73.0358 62.4136 73.4119 62.8792 73.788 63.3447C74.164 63.8102 74.5511 64.2692 74.9447 64.7215C75.3384 65.1738 75.7475 65.604 76.1499 66.0453L76.4512 66.3762L76.7635 66.6962L77.3925 67.336C77.8147 67.7552 78.2524 68.1612 78.69 68.5672L79.363 69.154L79.6994 69.4475L80.0469 69.7255C80.9628 70.4812 81.9186 71.1868 82.9103 71.8392C83.9056 72.4824 84.9414 73.0602 86.0112 73.569C87.0752 74.0832 88.1783 74.5118 89.31 74.8509C91.5889 75.5427 93.9693 75.8367 96.3475 75.7202C96.9435 75.6915 97.5394 75.6209 98.1618 75.5768C98.7537 75.5284 99.3415 75.4392 99.9212 75.3098C101.107 75.0693 102.27 74.7141 103.469 74.4273L103.515 74.5994C102.945 74.7957 102.38 75.0406 101.806 75.2458C101.232 75.451 100.654 75.6672 100.062 75.8526C99.4654 76.04 98.8571 76.1874 98.241 76.2938C97.6516 76.3909 97.0402 76.5145 96.4222 76.5851C93.9282 76.8964 91.3984 76.7469 88.9581 76.1438C86.5182 75.5314 84.1832 74.5564 82.0306 73.2513C79.8872 71.9498 77.8955 70.4119 76.0927 68.6664C74.2762 66.9543 72.6708 65.0127 71.1665 63.0733C69.6622 61.1339 68.1932 59.2056 66.6911 57.2838C65.189 55.3621 63.6672 53.458 62.1321 51.5649L59.8186 48.7474C59.0401 47.8185 58.2571 46.872 57.4588 45.9917L56.6781 45.129L57.7887 45.0231C60.4395 44.7686 63.0954 44.6171 65.7564 44.5686C68.4131 44.5134 71.0675 44.5686 73.7176 44.7407C76.375 44.9191 79.0191 45.261 81.6347 45.7644C82.9411 46.038 84.2496 46.3314 85.5339 46.7308C86.8255 47.1136 88.0912 47.5794 89.3232 48.1252C90.5629 48.6747 91.7629 49.3102 92.9145 50.0271C96.3837 52.2231 99.2696 55.2312 101.324 58.793C101.663 59.3821 101.984 59.9822 102.274 60.5956C102.565 61.2089 102.826 61.8355 103.07 62.4688C103.555 63.7305 103.947 65.0262 104.243 66.3454C104.836 68.9623 105.083 71.6463 104.977 74.328L104.792 74.3324Z" fill="#052629"/>
<path d="M120.209 73.2734C120.209 73.2734 139.931 67.2941 144.741 45.7071C149.551 24.12 137.413 16.3029 137.413 16.3029L136.956 11.7092C136.956 11.7092 151.633 23.2198 146.127 46.4087C140.62 69.5976 120.209 73.2734 120.209 73.2734Z" fill="#052629"/>
<path d="M106.264 0C106.264 0 99.4044 0.573654 97.3019 5.73654C95.1995 10.8994 96.7301 13.7721 97.6824 15.3033C98.6346 16.8345 102.831 21.426 103.4 24.6782C103.97 27.9303 103.018 30.9928 103.018 30.9928C103.018 30.9928 104.155 24.7113 99.9717 20.2809C96.5454 16.6448 95.2039 14.9238 94.8212 10.7141C94.7354 9.76095 95.0059 0.381701 106.264 0Z" fill="#052629"/>
<path d="M103.405 19.3234C103.308 18.9312 103.18 18.5475 103.022 18.176C102.831 17.7921 98.6368 10.9061 103.213 9.18292C107.79 7.45975 107.599 4.01782 107.599 4.01782C107.599 4.01782 108.076 7.548 104.262 10.0434C100.449 12.5388 102.927 17.3244 103.022 17.7921C103.059 17.9797 103.405 19.3234 103.405 19.3234Z" fill="#052629"/>
<path d="M113.51 8.60474C113.51 8.60474 116.563 17.4059 107.792 19.8925C107.79 19.8969 114.273 15.8857 113.51 8.60474Z" fill="#052629"/>
<path d="M99.2086 21.2362C99.2086 21.2362 94.6321 22.1937 94.2494 23.9147C93.8667 25.6357 94.8124 27.778 94.8124 27.778C94.8124 27.778 92.556 26.3262 93.2972 23.7227C94.0603 21.0442 99.2086 21.2362 99.2086 21.2362Z" fill="#052629"/>
<path d="M97.4911 36.9256C97.4911 36.9256 94.0604 36.352 93.4864 34.4369C92.9124 32.5217 93.869 29.8454 95.5844 28.1245C97.2162 26.4873 98.2543 23.3411 98.2543 23.3411C98.2543 23.3411 98.0915 25.7019 97.5945 26.8712C97.0227 28.2105 94.3529 30.6993 94.542 33.3778C94.7311 36.0563 97.4911 36.9256 97.4911 36.9256Z" fill="#052629"/>
<path d="M107.79 34.6399C107.79 34.6399 110.079 36.3631 112.175 33.8743C114.271 31.3855 116.754 27.9436 116.754 27.9436C116.754 27.9436 114.522 32.9543 113.13 34.6399C112.175 35.7762 110.46 36.7338 107.79 34.6399Z" fill="#052629"/>
<path d="M122.665 52.4232C122.665 48.979 119.232 41.1332 120.376 38.0818C121.52 35.0304 121.711 23.9236 121.711 23.9236C121.711 23.9236 122.371 32.2504 121.806 35.8821C121.24 39.5137 121.806 43.7257 121.997 45.4466C122.188 47.1676 122.665 52.4232 122.665 52.4232Z" fill="#052629"/>
<path d="M116.371 30.4192L116.754 42.9712C116.754 42.9712 118.85 38.0731 116.371 30.4192Z" fill="#052629"/>
<path d="M99.1845 56.3416C99.2109 56.4409 99.0878 54.2037 99.1163 53.6653C99.2109 51.8473 100.546 43.6219 98.2565 41.4222C95.9671 39.2225 95.7889 37.2875 95.7889 37.2875C95.7889 37.2875 97.0843 39.2158 98.2543 40.2837C99.4242 41.3516 101.113 42.4724 100.735 47.8295C100.5 51.1236 99.9718 55.1105 99.9718 56.8226C99.9718 56.9307 99.9718 57.0432 99.9718 57.169C99.9674 57.169 99.0878 55.9864 99.1845 56.3416Z" fill="#052629"/>
<path d="M112.749 36.1602C112.549 36.5867 112.41 37.04 112.338 37.506C112.26 37.9657 112.229 38.4323 112.248 38.8983C112.266 39.3608 112.321 39.8212 112.413 40.275C112.509 40.7247 112.637 41.1671 112.795 41.5988C113.117 42.4657 113.533 43.2938 114.038 44.0678C114.541 44.8423 115.099 45.5796 115.707 46.2741C116.321 46.9691 116.98 47.6244 117.653 48.2598L118.172 48.7254L118.432 48.9593L118.7 49.2108L119.237 49.7138L119.736 50.261C121.059 51.7579 121.969 53.5757 122.375 55.5342C122.559 56.5112 122.628 57.5065 122.58 58.4996C122.528 59.4824 122.38 60.4578 122.14 61.412C121.898 62.355 121.585 63.2784 121.205 64.1743C120.825 65.0664 120.384 65.9312 119.886 66.7624C119.639 67.1772 119.382 67.5854 119.109 67.9847C118.971 68.1833 118.832 68.3797 118.685 68.576C118.537 68.7724 118.403 68.9577 118.26 69.1475L116.574 71.4267C115.434 72.938 114.297 74.4516 113.119 75.9365C114.088 74.306 115.098 72.7041 116.116 71.1001L117.656 68.704C117.785 68.5076 117.909 68.3002 118.045 68.1127C118.181 67.9252 118.298 67.7266 118.419 67.5302C118.663 67.1353 118.892 66.7315 119.111 66.3211C119.995 64.6949 120.66 62.959 121.091 61.1582C121.521 59.39 121.579 57.5512 121.26 55.7593C120.904 53.9861 120.097 52.3353 118.918 50.9671L118.478 50.453L117.992 49.972L117.75 49.7293L117.488 49.4822L116.967 48.9857C116.282 48.3081 115.635 47.5921 115.03 46.8412C114.423 46.0858 113.879 45.2822 113.402 44.4384C112.923 43.5915 112.542 42.692 112.268 41.7577C112.002 40.8269 111.891 39.8586 111.94 38.8916C111.977 37.9275 112.255 36.9881 112.749 36.1602Z" fill="#052629"/>
<path d="M110.268 59.3092C109.83 59.8279 109.433 60.3804 109.081 60.9618C108.722 61.5288 108.41 62.1223 108.111 62.7158C107.531 63.9146 107.04 65.1542 106.64 66.4247L106.343 67.3801L106.088 68.3509L105.956 68.8363L105.846 69.3283C105.776 69.6548 105.701 69.9902 105.626 70.3123C105.483 70.9742 105.375 71.6361 105.223 72.2981C105.107 72.96 105.004 73.6439 104.839 74.3213C104.755 73.6351 104.718 72.9445 104.685 72.2517C104.685 71.9075 104.698 71.5611 104.711 71.2147L104.733 70.694C104.737 70.5199 104.749 70.3461 104.77 70.1733C104.81 69.8291 104.852 69.4849 104.898 69.1385C104.922 68.9664 104.94 68.7944 104.973 68.6223L105.076 68.1104L105.296 67.0866L105.595 66.0805C106.016 64.7407 106.611 63.4625 107.366 62.279C107.747 61.6905 108.181 61.1374 108.661 60.6264C109.129 60.1104 109.671 59.6666 110.268 59.3092Z" fill="#052629"/>
<path d="M1.48227 88.0935V91.9348H5.98405V93.1461H1.48227V97.8699H0V86.8822H6.74718V88.0935H1.48227Z" fill="#052629"/>
<path d="M18.6625 92.3805C18.672 93.1555 18.5401 93.9257 18.2732 94.653C18.0287 95.3096 17.6547 95.9099 17.1736 96.4181C16.6913 96.9191 16.109 97.3123 15.4648 97.572C14.7656 97.8517 14.0184 97.9911 13.2656 97.9824C12.5128 97.9922 11.7654 97.8528 11.0664 97.572C10.4209 97.3136 9.83765 96.9202 9.35544 96.4181C8.8737 95.9104 8.49962 95.3099 8.25583 94.653C7.73683 93.1873 7.73683 91.5869 8.25583 90.1211C8.49847 89.4597 8.87258 88.8547 9.35544 88.3428C9.83527 87.8387 10.4162 87.4425 11.0598 87.1801C11.7584 86.8976 12.5059 86.7573 13.259 86.7675C14.012 86.7584 14.7594 86.8986 15.4582 87.1801C16.1029 87.443 16.6851 87.8392 17.167 88.3428C17.6493 88.8552 18.0233 89.4601 18.2666 90.1211C18.5341 90.8439 18.6683 91.6095 18.6625 92.3805ZM17.1428 92.3805C17.1515 91.7634 17.0586 91.1491 16.8679 90.5624C16.7032 90.0599 16.4375 89.5966 16.0872 89.2011C15.7483 88.8284 15.3305 88.5367 14.8645 88.3472C13.8344 87.9471 12.6925 87.9471 11.6624 88.3472C11.1954 88.5372 10.7762 88.8288 10.4353 89.2011C10.0835 89.5959 9.81699 90.0594 9.65233 90.5624C9.28582 91.7451 9.28582 93.0115 9.65233 94.1941C9.81749 94.6956 10.084 95.1576 10.4353 95.551C10.7739 95.9219 11.191 96.2121 11.6558 96.4005C12.687 96.7946 13.8267 96.7946 14.8579 96.4005C15.3241 96.2134 15.7421 95.923 16.0806 95.551C16.4304 95.1568 16.696 94.6951 16.8613 94.1941C17.0582 93.61 17.157 92.9971 17.1538 92.3805H17.1428Z" fill="#052629"/>
<path d="M25.0073 96.6895C25.4226 96.6989 25.8356 96.6238 26.2212 96.4689C26.5662 96.3225 26.8754 96.1027 27.1273 95.8246C27.3809 95.5364 27.5732 95.1993 27.6925 94.8339C27.8266 94.4262 27.8927 93.999 27.8882 93.5697V86.8822H29.3617V93.5609C29.3684 94.1627 29.2663 94.7607 29.0604 95.3259C28.8707 95.8492 28.5766 96.3282 28.1961 96.7336C27.8104 97.1379 27.3434 97.4553 26.826 97.6647C25.6543 98.1148 24.3581 98.1148 23.1863 97.6647C22.668 97.4548 22.1996 97.1375 21.8118 96.7336C21.4279 96.3263 21.1327 95.8431 20.9453 95.3149C20.7387 94.7498 20.6359 94.1518 20.6418 93.5498V86.8822H22.1175V93.5498C22.112 93.98 22.1781 94.408 22.3132 94.8163C22.4317 95.1814 22.6241 95.5179 22.8784 95.8047C23.1307 96.0845 23.4406 96.3059 23.7867 96.4534C24.1733 96.6145 24.5887 96.6949 25.0073 96.6895Z" fill="#052629"/>
<path d="M40.9053 86.8821V97.8698H40.1642C40.0624 97.8734 39.9613 97.8522 39.8695 97.808C39.7779 97.7564 39.6984 97.6857 39.6364 97.6006L33.3004 89.3201C33.3004 89.4481 33.3202 89.5739 33.3246 89.6974C33.329 89.821 33.3246 89.9335 33.3246 90.0416V97.8698H32.0271V86.8821H32.7902C32.8461 86.8817 32.902 86.8854 32.9574 86.8931C33 86.9007 33.0415 86.9141 33.0805 86.9329C33.1199 86.9525 33.1562 86.9778 33.1883 87.0079C33.2235 87.0432 33.2609 87.0851 33.3026 87.1358L39.6386 95.4075C39.6276 95.2751 39.6188 95.1471 39.6122 95.0214C39.6056 94.8956 39.599 94.7765 39.599 94.6639V86.8821H40.9053Z" fill="#052629"/>
<path d="M51.0964 88.1332H47.5513V97.8699H46.0757V88.1332H42.5217V86.8822H51.0987L51.0964 88.1332Z" fill="#052629"/>
<path d="M60.5508 97.8699H59.405C59.2897 97.8754 59.1762 97.8403 59.0839 97.7706C59.002 97.7035 58.9391 97.616 58.9014 97.5169L57.8766 94.8692H52.9613L51.9387 97.5169C51.9047 97.6137 51.8436 97.6987 51.7628 97.7618C51.6722 97.8354 51.5582 97.8738 51.4417 97.8699H50.2959L54.6745 86.8822H56.1722L60.5508 97.8699ZM57.4719 93.7903L55.7521 89.3202C55.7016 89.1878 55.6488 89.0334 55.5916 88.8569C55.5344 88.6804 55.4838 88.4928 55.4311 88.2943C55.3448 88.6461 55.2353 88.9918 55.1034 89.3291L53.3836 93.7903H57.4719Z" fill="#052629"/>
<path d="M63.478 97.8699H61.9957V86.8822H63.478V97.8699Z" fill="#052629"/>
<path d="M75.1492 86.8821V97.8698H74.4081C74.3063 97.8737 74.2051 97.8525 74.1134 97.808C74.0218 97.7564 73.9423 97.6857 73.8803 97.6006L67.5443 89.3201C67.5553 89.4481 67.5619 89.5739 67.5663 89.6974C67.5707 89.821 67.5663 89.9335 67.5663 90.0416V97.8698H66.2666V86.8821H67.0297C67.0864 86.8817 67.143 86.8854 67.1991 86.8931C67.2416 86.901 67.283 86.9144 67.3222 86.9329C67.3609 86.9525 67.3965 86.9778 67.4278 87.0079C67.4685 87.0481 67.5067 87.0909 67.5421 87.1358L73.8935 95.4075C73.8935 95.2751 73.8737 95.1471 73.8671 95.0214C73.8605 94.8956 73.8561 94.7765 73.8561 94.6639V86.8821H75.1492Z" fill="#052629"/>
<path d="M91.9775 92.3804C91.9874 93.1557 91.8547 93.9261 91.5861 94.653C91.3425 95.31 90.9684 95.9105 90.4865 96.4181C90.005 96.9201 89.4225 97.3134 88.7777 97.572C87.362 98.1175 85.795 98.1175 84.3793 97.572C83.734 97.313 83.1509 96.9197 82.6683 96.4181C82.1872 95.9099 81.8132 95.3095 81.5687 94.653C81.0468 93.1877 81.0468 91.5864 81.5687 90.1211C81.812 89.4601 82.186 88.8552 82.6683 88.3428C83.1485 87.8392 83.7293 87.443 84.3727 87.18C85.7878 86.6316 87.3559 86.6316 88.7711 87.18C89.4163 87.4418 89.9988 87.8381 90.4799 88.3428C90.9628 88.8546 91.337 89.4597 91.5795 90.1211C91.8488 90.8435 91.9837 91.6092 91.9775 92.3804ZM90.4557 92.3804C90.4654 91.7633 90.3725 91.1489 90.1808 90.5624C90.0168 90.06 89.7518 89.5967 89.4023 89.2011C89.0629 88.8289 88.6452 88.5372 88.1795 88.3472C87.1486 87.9471 86.0061 87.9471 84.9753 88.3472C84.5092 88.5377 84.0909 88.8293 83.7503 89.2011C83.3978 89.5953 83.1312 90.0589 82.9674 90.5624C82.6009 91.745 82.6009 93.0114 82.9674 94.1941C83.1316 94.696 83.3983 95.1581 83.7503 95.551C84.0905 95.9221 84.509 96.2123 84.9753 96.4004C86.0072 96.7947 87.1476 96.7947 88.1795 96.4004C88.6454 96.2128 89.0633 95.9225 89.4023 95.551C89.7513 95.1567 90.0162 94.6949 90.1808 94.1941C90.3727 93.6092 90.4656 92.9961 90.4557 92.3804Z" fill="#052629"/>
<path d="M95.5755 88.0935V91.9348H100.077V93.1461H95.5755V97.8699H94.0933V86.8822H100.843V88.0935H95.5755Z" fill="#052629"/>
<path d="M109.815 93.4924V97.8698H108.331V93.4924L104.32 86.8733H105.619C105.732 86.867 105.843 86.9014 105.932 86.9704C106.013 87.04 106.081 87.1246 106.132 87.2197L108.641 91.4978C108.733 91.6766 108.817 91.8442 108.894 92.0009C108.969 92.1537 109.036 92.3105 109.094 92.4708C109.149 92.3142 109.213 92.1553 109.283 92.0009C109.354 91.8464 109.435 91.6766 109.521 91.4978L112.019 87.2285C112.067 87.1377 112.132 87.0569 112.21 86.9902C112.298 86.9157 112.41 86.8771 112.525 86.8821H113.831L109.815 93.4924Z" fill="#052629"/>
<path d="M124.779 92.3804C124.788 93.1554 124.656 93.9256 124.39 94.653C124.145 95.3095 123.771 95.9098 123.29 96.4181C122.808 96.9201 122.226 97.3134 121.581 97.572C120.165 98.1175 118.598 98.1175 117.183 97.572C116.54 97.3117 115.959 96.9185 115.478 96.4181C114.997 95.9099 114.623 95.3095 114.379 94.653C113.86 93.1872 113.86 91.5869 114.379 90.1211C114.622 89.4601 114.996 88.8552 115.478 88.3428C115.959 87.8397 116.54 87.4435 117.183 87.18C118.598 86.6316 120.166 86.6316 121.581 87.18C122.226 87.4418 122.809 87.8381 123.29 88.3428C123.772 88.8553 124.146 89.4601 124.39 90.1211C124.655 90.8443 124.787 91.6099 124.779 92.3804ZM123.257 92.3804C123.267 91.7633 123.174 91.1489 122.982 90.5624C122.819 90.0596 122.554 89.5961 122.204 89.2011C121.865 88.8284 121.447 88.5367 120.981 88.3472C119.951 87.947 118.809 87.947 117.779 88.3472C117.312 88.5371 116.893 88.8288 116.552 89.2011C116.199 89.5953 115.932 90.0589 115.769 90.5624C115.402 91.745 115.402 93.0114 115.769 94.1941C115.933 94.696 116.2 95.1581 116.552 95.551C116.892 95.9226 117.312 96.2129 117.779 96.4004C118.81 96.7945 119.95 96.7945 120.981 96.4004C121.447 96.2134 121.865 95.923 122.204 95.551C122.553 95.1572 122.818 94.6953 122.982 94.1941C123.174 93.6092 123.267 92.9961 123.257 92.3804Z" fill="#052629"/>
<path d="M131.121 96.6895C131.537 96.6992 131.951 96.6241 132.338 96.4688C132.683 96.3225 132.992 96.1027 133.244 95.8246C133.497 95.5364 133.69 95.1993 133.809 94.8339C133.942 94.426 134.007 93.9989 134.002 93.5697V86.8822H135.471V93.5609C135.477 94.1626 135.375 94.7604 135.17 95.3259C134.98 95.8488 134.686 96.3277 134.306 96.7336C133.92 97.1384 133.452 97.4559 132.934 97.6647C131.763 98.1147 130.467 98.1147 129.296 97.6647C128.777 97.4543 128.308 97.1371 127.919 96.7336C127.538 96.3283 127.243 95.8494 127.053 95.3259C126.847 94.7607 126.745 94.1627 126.752 93.5609V86.8822H128.227V93.5498C128.222 93.9798 128.287 94.4076 128.421 94.8163C128.54 95.181 128.732 95.5173 128.986 95.8047C129.239 96.0841 129.55 96.3054 129.896 96.4534C130.284 96.6155 130.701 96.6959 131.121 96.6895Z" fill="#052629"/>
<path d="M145.544 88.1332H141.997V97.8699H140.53V88.1332H136.967V86.8822H145.544V88.1332Z" fill="#052629"/>
<path d="M156.036 86.8822V97.8699H154.554V92.8703H148.647V97.8699H147.162V86.8822H148.647V91.7847H154.554V86.8822H156.036Z" fill="#052629"/>
<path d="M174.14 86.8822V97.8699H172.843V89.799C172.843 89.6909 172.843 89.5784 172.854 89.4526C172.865 89.3268 172.869 89.2055 172.88 89.0775L169.119 95.9459C169.075 96.0502 169 96.1387 168.905 96.2C168.809 96.2614 168.698 96.2927 168.585 96.2901H168.365C168.252 96.2926 168.14 96.2612 168.044 96.1999C167.949 96.1386 167.874 96.0502 167.828 95.9459L163.993 89.0444C164.022 89.2941 164.038 89.5453 164.039 89.7968V97.8699H162.742V86.8822H163.841C163.945 86.8782 164.048 86.8916 164.147 86.9219C164.24 86.9687 164.313 87.0468 164.354 87.1425L168.136 93.905C168.198 94.0264 168.257 94.1544 168.317 94.2889C168.376 94.4235 168.429 94.5559 168.479 94.6949C168.532 94.5559 168.585 94.4191 168.64 94.2845C168.695 94.1499 168.759 94.0198 168.825 93.8962L172.539 87.1425C172.575 87.045 172.648 86.9657 172.741 86.9219C172.842 86.8915 172.947 86.8781 173.051 86.8822H174.14Z" fill="#052629"/>
<path d="M183.693 96.6586V97.8699H176.938V86.8822H183.687V88.0935H178.409V91.7428H182.673V92.91H178.42V96.6608L183.693 96.6586Z" fill="#052629"/>
<path d="M195.257 92.3804C195.267 93.1468 195.135 93.9084 194.868 94.6265C194.629 95.2745 194.254 95.8638 193.77 96.355C193.286 96.8462 192.702 97.228 192.059 97.4749C191.357 97.744 190.611 97.8779 189.86 97.8699H185.765V86.8822H189.853C190.605 86.8741 191.351 87.0081 192.053 87.2771C192.694 87.5253 193.275 87.9065 193.759 88.3957C194.242 88.8926 194.616 89.4847 194.859 90.1344C195.129 90.8518 195.264 91.6134 195.257 92.3804ZM193.735 92.3804C193.745 91.7664 193.653 91.1549 193.462 90.5712C193.297 90.0722 193.031 89.6126 192.682 89.2209C192.343 88.8509 191.925 88.5627 191.459 88.3781C190.948 88.1779 190.402 88.079 189.853 88.0869H187.247V96.6652H189.853C190.402 96.673 190.948 96.5741 191.459 96.3739C191.924 96.1893 192.341 95.9028 192.682 95.5355C193.032 95.1458 193.298 94.6875 193.462 94.1897C193.653 93.6059 193.745 92.9945 193.735 92.3804Z" fill="#052629"/>
<path d="M202.987 88.6009C202.949 88.6676 202.898 88.7261 202.838 88.773C202.781 88.8119 202.713 88.832 202.644 88.8304C202.531 88.8199 202.424 88.7744 202.338 88.7002C202.22 88.6119 202.075 88.5171 201.899 88.4112C201.696 88.2956 201.483 88.1996 201.263 88.1243C200.973 88.0313 200.67 87.9873 200.366 87.9942C200.067 87.9879 199.769 88.0334 199.486 88.1288C199.253 88.2063 199.037 88.3301 198.853 88.4928C198.685 88.6413 198.552 88.8261 198.466 89.0334C198.379 89.2433 198.335 89.4682 198.336 89.6953C198.323 89.9671 198.401 90.2354 198.556 90.4587C198.717 90.67 198.92 90.8457 199.152 90.975C199.418 91.1282 199.7 91.2532 199.992 91.3478L200.955 91.6744C201.284 91.7862 201.605 91.9127 201.918 92.0539C202.223 92.1889 202.506 92.3681 202.758 92.5856C203.009 92.805 203.212 93.0739 203.354 93.3755C203.512 93.7374 203.587 94.1302 203.574 94.525C203.578 94.9879 203.495 95.4473 203.33 95.8797C203.174 96.2947 202.93 96.6709 202.616 96.9829C202.287 97.3063 201.894 97.5573 201.463 97.7198C200.966 97.906 200.439 97.9973 199.908 97.989C199.241 97.9982 198.579 97.8658 197.966 97.6007C197.405 97.3557 196.898 97.0001 196.475 96.5548L196.904 95.8488C196.945 95.7926 196.995 95.7446 197.054 95.7076C197.111 95.6689 197.178 95.6489 197.247 95.6502C197.326 95.6563 197.402 95.6838 197.467 95.7297C197.553 95.7826 197.648 95.851 197.755 95.9327C197.863 96.0143 197.975 96.1048 198.123 96.2018C198.27 96.3058 198.428 96.3952 198.593 96.4688C198.785 96.5576 198.985 96.6264 199.191 96.674C199.44 96.7295 199.694 96.7561 199.948 96.7534C200.268 96.7586 200.586 96.7093 200.889 96.6078C201.148 96.5203 201.386 96.3807 201.589 96.1974C201.78 96.0218 201.931 95.8055 202.028 95.5642C202.134 95.3045 202.186 95.0261 202.182 94.7456C202.196 94.4571 202.119 94.1716 201.962 93.9293C201.805 93.7102 201.603 93.5281 201.369 93.3953C201.103 93.2425 200.821 93.1203 200.528 93.0313L199.565 92.7246C199.24 92.6209 198.919 92.504 198.602 92.3606C198.295 92.2277 198.012 92.0467 197.762 91.8244C197.51 91.5932 197.309 91.3123 197.17 90.9992C196.868 90.2454 196.868 89.4033 197.17 88.6495C197.321 88.2848 197.546 87.9557 197.83 87.6831C198.137 87.3903 198.499 87.1609 198.894 87.0079C199.357 86.8327 199.848 86.7473 200.342 86.7564C200.911 86.749 201.477 86.8477 202.011 87.0476C202.503 87.2369 202.951 87.5235 203.33 87.8905L202.987 88.6009Z" fill="#052629"/>
<path d="M208.925 86.8822C209.536 86.8713 210.146 86.9531 210.733 87.1249C211.201 87.2611 211.634 87.4958 212.004 87.8133C212.337 88.105 212.596 88.4727 212.758 88.8856C212.929 89.3334 213.013 89.8095 213.007 90.2888C213.012 90.7699 212.921 91.2472 212.739 91.6921C212.564 92.1143 212.296 92.4914 211.956 92.7952C211.583 93.118 211.149 93.3619 210.68 93.5123C210.111 93.6931 209.517 93.7795 208.921 93.7682H207.161V97.8787H205.686V86.891L208.925 86.8822ZM208.925 92.579C209.305 92.586 209.683 92.5293 210.045 92.4113C210.346 92.3116 210.625 92.1509 210.863 91.9392C211.083 91.7395 211.254 91.492 211.364 91.2155C211.478 90.9194 211.535 90.6041 211.531 90.2866C211.548 89.9829 211.499 89.6792 211.388 89.3962C211.277 89.1132 211.106 88.8578 210.887 88.6473C210.456 88.2531 209.802 88.056 208.925 88.056H207.166V92.579H208.925Z" fill="#052629"/>
<path d="M223 97.8699H221.854C221.739 97.8758 221.625 97.8406 221.533 97.7706C221.451 97.703 221.388 97.6157 221.348 97.5169L220.326 94.8692H215.411L214.388 97.5169C214.354 97.6137 214.293 97.6987 214.212 97.7618C214.121 97.8354 214.007 97.8738 213.891 97.8699H212.743L217.124 86.8822H218.621L223 97.8699ZM219.921 93.7903L218.201 89.3202C218.151 89.1878 218.098 89.0334 218.041 88.8569C217.984 88.6804 217.931 88.4928 217.88 88.2943C217.794 88.6461 217.685 88.9918 217.553 89.3291L215.833 93.7903H219.921Z" fill="#052629"/>
</g>
<defs>
<clipPath id="clip0_304_468">
<rect width="223" height="98" fill="white"/>
</clipPath>
</defs>
</svg>
